# Blender 3.4.1
# www.blender.org
mtllib Mountain11.mtl
v 1.000000 1.000000 -1.000000
v 1.000000 -1.000000 -1.000000
v 1.000000 1.000000 1.000000
v 1.000000 -1.000000 1.000000
v -1.000000 1.000000 -1.000000
v -1.000000 -1.000000 -1.000000
v -1.000000 1.000000 1.000000
v -1.000000 -1.000000 1.000000
vn -0.0000 1.0000 -0.0000
vn -0.0000 -0.0000 1.0000
vn -1.0000 -0.0000 -0.0000
vn -0.0000 -1.0000 -0.0000
vn 1.0000 -0.0000 -0.0000
vn -0.0000 -0.0000 -1.0000
vt 0.625000 0.500000
vt 0.375000 0.500000
vt 0.625000 0.750000
vt 0.375000 0.750000
vt 0.875000 0.500000
vt 0.625000 0.250000
vt 0.125000 0.500000
vt 0.375000 0.250000
vt 0.875000 0.750000
vt 0.625000 1.000000
vt 0.625000 0.000000
vt 0.375000 1.000000
vt 0.375000 0.000000
vt 0.125000 0.750000
s 0
usemtl Material
f 1/1/1 5/5/1 7/9/1 3/3/1
f 4/4/2 3/3/2 7/10/2 8/12/2
f 8/13/3 7/11/3 5/6/3 6/8/3
f 6/7/4 2/2/4 4/4/4 8/14/4
f 2/2/5 1/1/5 3/3/5 4/4/5
f 6/8/6 5/6/6 1/1/6 2/2/6

v -4293.015625 -393.432648 3757.863281
v 4987.323730 -452.211578 1367.272461
v -4610.596680 304.072449 19.243883
v -2204.102051 2086.470947 -875.042542
v -3274.475342 -372.173035 -3314.657959
vn 0.0790 0.9201 0.3837
vn 0.2766 0.9597 0.0505
vn 0.0597 0.9520 -0.3003
vn -0.1296 0.6786 -0.7229
vn -0.2323 0.9535 -0.1921
vt 0.070631 0.265265
vt 0.959948 0.491159
vt 0.073329 0.591120
vt 0.253376 0.688681
vt 0.162553 0.934655
s 1
usemtl mountain
f 9/15/7 10/16/8 12/18/9
f 13/19/10 12/18/9 10/16/8
f 11/17/11 9/15/7 12/18/9
f 13/19/10 11/17/11 12/18/9
