# Blender 3.4.1
# www.blender.org
mtllib left_wing.mtl
g Left_Wing_su-47.001
v -2.249462 -0.096973 -0.788902
v -2.250670 0.082636 -0.790043
v 1.599741 -0.044240 1.019378
v 1.600101 0.011284 1.011671
v 2.270236 -0.051062 1.683374
v 2.270158 -0.015505 1.680918
v 2.361298 -0.036819 1.453216
v 2.367646 -0.036949 1.629515
v 1.934988 -0.047651 1.351376
v -0.324861 -0.070607 0.115238
v 1.935129 -0.002110 1.346295
v -0.325284 0.046960 0.110814
v -2.208542 -0.081133 -1.511495
v -2.210588 0.049011 -1.513394
v -2.290383 -0.112814 -0.066309
v -2.290752 0.116260 -0.066693
v -1.287162 -0.083790 -0.336832
v -0.430703 -0.082895 0.635978
v -0.219019 -0.058318 -0.405502
v -1.287977 0.064798 -0.339615
v -0.220177 0.025749 -0.408864
v -0.430392 0.068171 0.630491
v -1.360572 0.092216 0.281899
v -1.215383 0.037380 -0.961129
v -1.213780 -0.069725 -0.958499
v -1.360543 -0.097854 0.284835
v 2.179185 0.008842 1.908917
v 2.179185 0.008842 1.908917
v -2.234313 0.149885 0.597906
v -2.234313 0.149885 0.597906
v -2.234782 -0.111087 0.597532
v -2.234782 -0.111087 0.597532
v -2.187297 -0.065292 -2.234089
v -2.187297 -0.065292 -2.234089
v -2.190181 0.015386 -2.236744
v -2.190181 0.015386 -2.236744
v 1.265457 0.032785 1.643681
v 1.265457 0.032785 1.643681
v 1.258213 -0.067567 1.657153
v 1.258213 -0.067567 1.657153
v 1.941268 -0.026769 0.381603
v 1.941268 -0.026769 0.381603
v 1.941268 -0.026769 0.381603
v 1.940366 -0.006313 0.379661
v 1.940366 -0.006313 0.379661
v 1.940366 -0.006313 0.379661
v 2.179008 -0.060530 1.913235
v 2.179008 -0.060530 1.913235
v 2.361465 -0.045498 1.453513
v 2.361465 -0.045498 1.453513
v 2.361130 -0.028140 1.452919
v 2.361130 -0.028140 1.452919
v 2.309536 0.007881 1.906832
v 2.309536 0.007881 1.906832
v 2.309536 0.007881 1.906832
v 2.309274 -0.062876 1.907804
v 2.309274 -0.062876 1.907804
v 2.309274 -0.062876 1.907804
v 2.374019 -0.062718 1.805889
v 2.374019 -0.062718 1.805889
v 2.374019 -0.062718 1.805889
v 2.373973 0.008079 1.805737
v 2.373973 0.008079 1.805737
v 2.373973 0.008079 1.805737
v -0.535500 0.086455 1.116169
v -0.535500 0.086455 1.116169
v -0.115070 0.004537 -0.928542
v -0.115070 0.004537 -0.928542
v -0.536545 -0.098111 1.122719
v -0.536545 -0.098111 1.122719
v -0.113176 -0.046030 -0.926243
v -0.113176 -0.046030 -0.926243
v 1.719510 0.019838 1.776299
v 1.719510 0.019838 1.776299
v 2.179419 -0.017226 0.916290
v 2.179419 -0.017226 0.916290
v 1.718611 -0.061120 1.785194
v 1.718611 -0.061120 1.785194
v 2.180037 -0.036133 0.917558
v 2.180037 -0.036133 0.917558
v 2.373996 -0.037080 1.805813
v 2.373996 -0.037080 1.805813
v 2.367551 -0.028086 1.629328
v 2.367551 -0.028086 1.629328
v 2.367741 -0.045812 1.629701
v 2.367741 -0.045812 1.629701
v -2.234548 0.010615 0.597719
v -2.188739 -0.024953 -2.235416
v -1.142788 0.009962 -1.582643
v -1.142788 0.009962 -1.582643
v -1.140399 -0.055661 -1.580166
v -1.140399 -0.055661 -1.580166
v -1.873806 0.143058 0.706175
v -1.873806 0.143058 0.706175
v -1.874564 -0.111919 0.709263
v -1.874564 -0.111919 0.709263
vn 0.0385 0.9991 -0.0181
vn 0.8881 0.0189 -0.4592
vn 0.8598 0.5106 -0.0023
vn 0.0531 0.9984 -0.0179
vn 0.7787 0.4582 -0.4285
vn 0.2048 -0.5345 0.8200
vn 0.9040 -0.0278 -0.4266
vn 0.4462 -0.7389 -0.5049
vn 0.0196 -0.9997 -0.0148
vn 0.0202 -0.9996 -0.0172
vn -0.1859 -0.8970 -0.4011
vn 0.0330 0.9990 -0.0318
vn 0.0392 0.9987 -0.0328
vn 0.9300 0.0702 -0.3608
vn 0.0226 -0.9995 -0.0198
vn 0.0219 -0.9996 -0.0188
vn -0.8109 0.5828 -0.0521
vn -0.7299 0.6705 -0.1329
vn 0.0180 -0.9996 -0.0216
vn 0.0736 0.0731 0.9946
vn 0.0067 -0.3204 0.9473
vn 0.3277 -0.9261 0.1870
vn 0.1931 0.1791 -0.9647
vn 0.5907 0.7748 -0.2254
vn 0.0325 0.9974 -0.0644
vn 0.0940 -0.5176 -0.8504
vn -0.5403 0.5209 0.6609
vn -0.3056 0.9179 0.2532
vn 0.9836 0.0107 -0.1802
vn 0.3322 -0.8481 -0.4128
vn 0.3610 -0.7151 0.5986
vn 0.9993 0.0083 -0.0360
vn -0.5651 0.6508 0.5072
vn -0.2970 0.9360 0.1889
vn 0.5318 0.1900 0.8253
vn 0.7516 -0.4524 -0.4800
vn 0.3878 0.1877 -0.9024
vn 0.7385 0.4153 0.5311
vn -0.2024 -0.2497 0.9469
vn 0.0518 0.4459 0.8936
vn -0.1078 0.6551 0.7478
vn 0.0573 -0.0448 0.9973
vn 0.0668 -0.1284 0.9895
vn -0.1327 -0.3923 0.9102
vn -0.3017 0.9532 0.0172
vn 0.6389 0.1623 0.7520
vn 0.0013 -0.9993 -0.0364
vn -0.7859 -0.2634 0.5594
vn -0.5048 0.8568 -0.1054
vn 0.3855 -0.7927 -0.4723
vn 0.6737 -0.6222 -0.3987
vn -0.1671 0.4289 -0.8878
vn 0.0685 0.9957 0.0630
vn 0.3281 0.5041 0.7989
vn -0.1627 -0.9352 0.3145
vn 0.3413 -0.9334 -0.1106
vn -0.9375 -0.2888 0.1943
vn -0.7425 -0.5090 -0.4353
vn -0.3622 -0.3534 0.8625
vn 0.0131 -0.9996 -0.0237
vn 0.8763 0.3569 0.3236
vn -0.3001 -0.8872 -0.3505
vn -0.5776 -0.7783 -0.2463
vn -0.3976 0.8672 -0.2998
vn -0.0034 -0.1747 0.9846
vn -0.2956 0.6566 0.6939
vn 0.0298 0.9990 -0.0323
vn -0.0848 0.2851 0.9547
vn 0.5386 0.2281 0.8111
vn -0.0323 -0.0475 0.9983
vn 0.4272 -0.9029 -0.0472
vn -0.1660 -0.9502 -0.2639
vn 0.0230 -0.9995 -0.0199
vn 0.0222 -0.9995 -0.0211
vn 0.0416 0.9980 -0.0483
vn 0.4978 0.8472 -0.1858
vn 0.8413 0.5266 -0.1222
vn 0.0432 0.9981 -0.0433
vn 0.3542 -0.9324 0.0717
vn 0.0338 0.9986 -0.0400
vn 0.0370 0.9985 -0.0396
vn 0.9285 0.3323 0.1659
vn 0.0379 0.9984 -0.0421
vn 0.4665 0.3459 0.8141
vn 0.0348 0.9985 -0.0427
vn -0.5003 0.5058 0.7027
vn 0.0225 -0.9995 -0.0200
vn 0.0232 -0.9995 -0.0203
vn 0.0227 -0.9995 -0.0205
vn 0.7956 0.2015 0.5713
vn -0.7386 -0.6044 0.2986
vn 0.3332 0.6824 0.6506
vn 0.5836 -0.6770 0.4483
vn 0.1659 0.9220 0.3497
vn -0.6339 0.5592 0.5343
vn -0.4847 -0.4714 0.7367
vt 0.477464 0.500000
vt 0.489585 0.500000
vt 0.477464 0.500000
vt 0.489585 0.500000
vt 0.477464 0.500000
vt 0.489585 0.500000
vt 0.483525 0.500000
vt 0.483525 0.500000
vt 0.477464 0.500000
vt 0.477464 0.500000
vt 0.489585 0.500000
vt 0.489585 0.500000
vt 0.477464 0.500000
vt 0.489585 0.500000
vt 0.477464 0.500000
vt 0.489585 0.500000
vt 0.477464 0.500000
vt 0.477464 0.500000
vt 0.477464 0.500000
vt 0.489585 0.500000
vt 0.489585 0.500000
vt 0.489585 0.500000
vt 0.489585 0.500000
vt 0.489585 0.500000
vt 0.477464 0.500000
vt 0.477464 0.500000
vt 0.489585 0.500000
vt 0.489585 0.500000
vt 0.489585 0.500000
vt 0.489585 0.500000
vt 0.477464 0.500000
vt 0.477464 0.500000
vt 0.477464 0.500000
vt 0.477464 0.500000
vt 0.489585 0.500000
vt 0.489585 0.500000
vt 0.489585 0.500000
vt 0.489585 0.500000
vt 0.477464 0.500000
vt 0.477464 0.500000
vt 0.477464 0.500000
vt 0.477464 0.500000
vt 0.477464 0.500000
vt 0.489585 0.500000
vt 0.489585 0.500000
vt 0.489585 0.500000
vt 0.477464 0.500000
vt 0.477464 0.500000
vt 0.477464 0.500000
vt 0.477464 0.500000
vt 0.489585 0.500000
vt 0.489585 0.500000
vt 0.489585 0.500000
vt 0.489585 0.500000
vt 0.489585 0.500000
vt 0.477464 0.500000
vt 0.477464 0.500000
vt 0.477464 0.500000
vt 0.477464 0.500000
vt 0.477464 0.500000
vt 0.477464 0.500000
vt 0.489585 0.500000
vt 0.489585 0.500000
vt 0.489585 0.500000
vt 0.489585 0.500000
vt 0.489585 0.500000
vt 0.489585 0.500000
vt 0.489585 0.500000
vt 0.477464 0.500000
vt 0.477464 0.500000
vt 0.477464 0.500000
vt 0.477464 0.500000
vt 0.489585 0.500000
vt 0.489585 0.500000
vt 0.489585 0.500000
vt 0.489585 0.500000
vt 0.477464 0.500000
vt 0.477464 0.500000
vt 0.477464 0.500000
vt 0.477464 0.500000
vt 0.483525 0.500000
vt 0.483525 0.500000
vt 0.489585 0.500000
vt 0.489585 0.500000
vt 0.477464 0.500000
vt 0.477464 0.500000
vt 0.483525 0.500000
vt 0.483525 0.500000
vt 0.489585 0.500000
vt 0.489585 0.500000
vt 0.477464 0.500000
vt 0.477464 0.500000
vt 0.489585 0.500000
vt 0.489585 0.500000
vt 0.477464 0.500000
vt 0.477464 0.500000
s 1
g Left_Wing_Body
usemtl Body
f 4/4/1 38/38/2 73/73/3 11/11/4
f 88/88/5 36/36/6 90/90/7
f 32/32/8 15/15/9 26/26/10 96/96/11
f 12/12/12 22/22/13 65/65/14 38/38/2 4/4/1
f 10/10/15 19/19/16 71/71/17 43/43/18 3/3/19
f 42/42/20 46/46/21 76/76/22 79/79/23
f 11/11/4 73/73/3 28/28/24 6/6/25
f 6/6/25 28/28/24 55/55/26 62/62/27 83/83/28
f 7/7/29 51/51/30 84/84/31 8/8/32
f 75/75/33 11/11/4 6/6/25 52/52/34
f 85/85/35 8/8/32 82/82/36 60/60/37
f 50/50/38 7/7/29 8/8/32 85/85/35
f 74/74/39 77/77/40 48/48/41 27/27/42
f 66/66/43 94/94/44 95/95/45 69/69/46
f 5/5/47 49/49/48 86/86/49
f 8/8/32 84/84/31 64/64/50 82/82/36
f 79/79/23 7/7/29 50/50/38
f 54/54/51 58/58/52 61/61/53 81/81/54 63/63/55
f 47/47/56 5/5/47 86/86/49 59/59/57 57/57/58
f 3/3/19 43/43/18 80/80/59 9/9/60
f 72/72/61 67/67/62 44/44/63 41/41/64
f 94/94/44 87/87/65 95/95/45
f 9/9/60 80/80/59 49/49/48 5/5/47
f 68/68/66 21/21/67 12/12/12 4/4/1 45/45/68
f 66/66/43 69/69/46 40/40/69 37/37/70
f 7/7/29 76/76/22 51/51/30
f 39/39/71 3/3/19 9/9/60 78/78/72
f 26/26/10 17/17/73 10/10/15 18/18/74
f 79/79/23 76/76/22 7/7/29
f 16/16/75 30/30/76 93/93/77 23/23/78
f 52/52/34 6/6/25 83/83/28
f 78/78/72 9/9/60 5/5/47 47/47/56
f 70/70/79 18/18/74 10/10/15 3/3/19 39/39/71
f 45/45/68 4/4/1 11/11/4 75/75/33
f 24/24/80 20/20/81 12/12/12 21/21/67
f 72/72/61 91/91/82 90/90/7 67/67/62
f 20/20/81 23/23/78 22/22/13 12/12/12
f 2/2/83 16/16/75 23/23/78 20/20/81
f 87/87/65 31/31/84 95/95/45
f 96/96/11 26/26/10 18/18/74 70/70/79
f 14/14/85 2/2/83 20/20/81 24/24/80
f 91/91/82 88/88/5 90/90/7
f 23/23/78 93/93/77 65/65/14 22/22/13
f 37/37/70 40/40/69 77/77/40 74/74/39
f 89/89/86 24/24/80 21/21/67 68/68/66
f 17/17/73 25/25/87 19/19/16 10/10/15
f 1/1/88 13/13/89 25/25/87 17/17/73
f 33/33/90 88/88/5 91/91/82
f 25/25/87 92/92/91 71/71/17 19/19/16
f 13/13/89 34/34/92 92/92/91 25/25/87
f 15/15/9 1/1/88 17/17/73 26/26/10
f 29/29/93 87/87/65 94/94/44
f 35/35/94 14/14/85 24/24/80 89/89/86
f 27/27/42 48/48/41 56/56/95 53/53/96
