# Blender 3.4.1
# www.blender.org
mtllib right_wing.mtl
g Right_Wing_su-47.002
v 1.999462 -0.046973 -0.817641
v 2.000670 0.132636 -0.818782
v -1.849741 0.005760 0.990639
v -1.850101 0.061284 0.982932
v -2.520236 -0.001062 1.654635
v -2.520158 0.034495 1.652179
v -2.611298 0.013181 1.424477
v -2.617646 0.013051 1.600776
v -2.184988 0.002349 1.322637
v 0.074861 -0.020607 0.086499
v -2.185129 0.047890 1.317556
v 0.075284 0.096960 0.082075
v 1.958542 -0.031133 -1.540234
v 1.960588 0.099011 -1.542133
v 2.040383 -0.062814 -0.095048
v 2.040752 0.166260 -0.095432
v 1.037162 -0.033790 -0.365571
v 0.180703 -0.032895 0.607239
v -0.030981 -0.008318 -0.434241
v 1.037977 0.114798 -0.368354
v -0.029823 0.075749 -0.437603
v 0.180392 0.118171 0.601752
v 1.110572 0.142216 0.253160
v 0.965383 0.087380 -0.989868
v 0.963780 -0.019725 -0.987238
v 1.110543 -0.047854 0.256096
v -2.429185 0.058842 1.880178
v -2.429185 0.058842 1.880178
v 1.984313 0.199885 0.569167
v 1.984313 0.199885 0.569167
v 1.984782 -0.061087 0.568793
v 1.984782 -0.061087 0.568793
v 1.937297 -0.015292 -2.262828
v 1.937297 -0.015292 -2.262828
v 1.940181 0.065386 -2.265483
v 1.940181 0.065386 -2.265483
v -1.515457 0.082785 1.614942
v -1.515457 0.082785 1.614942
v -1.508213 -0.017567 1.628414
v -1.508213 -0.017567 1.628414
v -2.191268 0.023231 0.352864
v -2.191268 0.023231 0.352864
v -2.191268 0.023231 0.352864
v -2.190366 0.043687 0.350922
v -2.190366 0.043687 0.350922
v -2.190366 0.043687 0.350922
v -2.429008 -0.010530 1.884496
v -2.429008 -0.010530 1.884496
v -2.611465 0.004502 1.424774
v -2.611465 0.004502 1.424774
v -2.611130 0.021860 1.424180
v -2.611130 0.021860 1.424180
v -2.559536 0.057881 1.878093
v -2.559536 0.057881 1.878093
v -2.559536 0.057881 1.878093
v -2.559274 -0.012876 1.879065
v -2.559274 -0.012876 1.879065
v -2.559274 -0.012876 1.879065
v -2.624019 -0.012718 1.777150
v -2.624019 -0.012718 1.777150
v -2.624019 -0.012718 1.777150
v -2.623973 0.058079 1.776998
v -2.623973 0.058079 1.776998
v -2.623973 0.058079 1.776998
v 0.285500 0.136455 1.087430
v 0.285500 0.136455 1.087430
v -0.134930 0.054537 -0.957281
v -0.134930 0.054537 -0.957281
v 0.286545 -0.048111 1.093980
v 0.286545 -0.048111 1.093980
v -0.136824 0.003970 -0.954982
v -0.136824 0.003970 -0.954982
v -1.969510 0.069838 1.747560
v -1.969510 0.069838 1.747560
v -2.429419 0.032774 0.887551
v -2.429419 0.032774 0.887551
v -1.968611 -0.011120 1.756455
v -1.968611 -0.011120 1.756455
v -2.430037 0.013867 0.888819
v -2.430037 0.013867 0.888819
v -2.623996 0.012920 1.777074
v -2.623996 0.012920 1.777074
v -2.617551 0.021914 1.600589
v -2.617551 0.021914 1.600589
v -2.617741 0.004188 1.600962
v -2.617741 0.004188 1.600962
v 1.984548 0.060615 0.568980
v 1.938739 0.025047 -2.264155
v 0.892788 0.059962 -1.611382
v 0.892788 0.059962 -1.611382
v 0.890399 -0.005661 -1.608905
v 0.890399 -0.005661 -1.608905
v 1.623806 0.193058 0.677436
v 1.623806 0.193058 0.677436
v 1.624564 -0.061919 0.680524
v 1.624564 -0.061919 0.680524
vn -0.0385 0.9991 -0.0181
vn -0.0531 0.9984 -0.0179
vn 0.2708 0.4016 -0.8748
vn -0.9962 0.0258 0.0833
vn -0.5208 0.1568 -0.8392
vn 0.0836 -0.2898 -0.9534
vn -0.9501 -0.0957 0.2970
vn -0.1104 -0.7445 -0.6585
vn -0.4547 -0.8903 -0.0243
vn -0.0202 -0.9996 -0.0172
vn -0.0196 -0.9997 -0.0148
vn -0.0330 0.9990 -0.0318
vn 0.9107 0.1621 -0.3800
vn -0.0392 0.9987 -0.0328
vn -0.0226 -0.9995 -0.0198
vn -0.0180 -0.9996 -0.0216
vn 0.7287 0.6648 0.1646
vn 0.6558 0.5760 0.4880
vn -0.0219 -0.9996 -0.0188
vn 0.1933 0.8961 0.3996
vn -0.7549 0.4380 0.4881
vn -0.5402 -0.4114 0.7341
vn 0.0513 -0.5761 0.8157
vn -0.0325 0.9974 -0.0644
vn 0.2297 0.7393 -0.6330
vn 0.7038 0.6920 0.1603
vn 0.9009 0.4325 0.0365
vn 0.8397 -0.4698 -0.2724
vn -0.9836 0.0107 -0.1802
vn -0.9993 0.0082 -0.0360
vn -0.7118 -0.0130 0.7023
vn -0.5772 -0.7851 0.2248
vn 0.7438 0.6580 0.1175
vn 0.6024 0.3323 0.7258
vn -0.6783 0.7337 -0.0395
vn -0.1166 0.9564 -0.2679
vn -0.7651 0.6433 -0.0287
vn -0.8619 0.4837 -0.1521
vn 0.2685 -0.3262 0.9064
vn -0.5268 -0.3036 0.7939
vn -0.2891 0.5179 0.8051
vn -0.1995 0.1362 0.9704
vn 0.1507 -0.3352 0.9300
vn 0.8111 0.5074 0.2911
vn -0.8828 0.3097 0.3533
vn 0.4349 -0.3952 0.8091
vn -0.0013 -0.9993 -0.0364
vn -0.0232 -0.7071 0.7067
vn 0.8046 -0.0171 0.5936
vn -0.3914 -0.8654 -0.3128
vn -0.7969 -0.5602 0.2260
vn 0.3404 -0.7300 0.5926
vn -0.3283 -0.4956 0.8041
vn 0.4185 0.3643 0.8320
vn -0.3862 0.2864 -0.8768
vn -0.2571 -0.9267 -0.2740
vn -0.2647 -0.5139 -0.8160
vn 0.0522 -0.8129 -0.5800
vn -0.0131 -0.9996 -0.0237
vn 0.5350 -0.3202 -0.7818
vn -0.4902 0.8693 0.0643
vn 0.0999 0.9884 -0.1145
vn 0.7951 -0.4595 -0.3958
vn -0.3688 -0.9264 0.0764
vn 0.0728 -0.2569 0.9637
vn 0.6894 0.6552 0.3089
vn 0.4546 0.2957 0.8402
vn -0.0298 0.9990 -0.0323
vn 0.2035 -0.1756 0.9632
vn 0.7772 0.4852 0.4007
vn -0.3566 -0.8996 -0.2521
vn -0.3146 -0.9492 -0.0112
vn -0.0222 -0.9995 -0.0211
vn -0.0230 -0.9995 -0.0199
vn -0.0416 0.9980 -0.0483
vn -0.0432 0.9981 -0.0433
vn 0.3338 0.5585 -0.7594
vn -0.0070 0.8490 -0.5284
vn -0.3249 -0.9271 -0.1867
vn -0.0338 0.9986 -0.0400
vn -0.0370 0.9985 -0.0396
vn -0.5460 0.8339 -0.0813
vn -0.0379 0.9984 -0.0421
vn -0.5430 0.0568 0.8378
vn -0.0348 0.9985 -0.0427
vn 0.7421 0.6117 0.2740
vn -0.0225 -0.9995 -0.0200
vn -0.0232 -0.9995 -0.0203
vn -0.0227 -0.9995 -0.0205
vn -0.1160 0.9854 0.1243
vn 0.3985 -0.5954 0.6976
vn -0.6167 0.4789 0.6247
vn -0.2924 -0.8857 0.3607
vn -0.5931 0.5984 0.5387
vn 0.9067 -0.3585 0.2222
vn 0.3216 0.7641 0.5592
vt 0.477464 0.500000
vt 0.489585 0.500000
vt 0.477464 0.500000
vt 0.489585 0.500000
vt 0.477464 0.500000
vt 0.489585 0.500000
vt 0.483525 0.500000
vt 0.483525 0.500000
vt 0.477464 0.500000
vt 0.477464 0.500000
vt 0.489585 0.500000
vt 0.489585 0.500000
vt 0.477464 0.500000
vt 0.489585 0.500000
vt 0.477464 0.500000
vt 0.489585 0.500000
vt 0.477464 0.500000
vt 0.477464 0.500000
vt 0.477464 0.500000
vt 0.489585 0.500000
vt 0.489585 0.500000
vt 0.489585 0.500000
vt 0.489585 0.500000
vt 0.489585 0.500000
vt 0.477464 0.500000
vt 0.477464 0.500000
vt 0.489585 0.500000
vt 0.489585 0.500000
vt 0.489585 0.500000
vt 0.489585 0.500000
vt 0.477464 0.500000
vt 0.477464 0.500000
vt 0.477464 0.500000
vt 0.477464 0.500000
vt 0.489585 0.500000
vt 0.489585 0.500000
vt 0.489585 0.500000
vt 0.489585 0.500000
vt 0.477464 0.500000
vt 0.477464 0.500000
vt 0.477464 0.500000
vt 0.477464 0.500000
vt 0.477464 0.500000
vt 0.489585 0.500000
vt 0.489585 0.500000
vt 0.489585 0.500000
vt 0.477464 0.500000
vt 0.477464 0.500000
vt 0.477464 0.500000
vt 0.477464 0.500000
vt 0.489585 0.500000
vt 0.489585 0.500000
vt 0.489585 0.500000
vt 0.489585 0.500000
vt 0.489585 0.500000
vt 0.477464 0.500000
vt 0.477464 0.500000
vt 0.477464 0.500000
vt 0.477464 0.500000
vt 0.477464 0.500000
vt 0.477464 0.500000
vt 0.489585 0.500000
vt 0.489585 0.500000
vt 0.489585 0.500000
vt 0.489585 0.500000
vt 0.489585 0.500000
vt 0.489585 0.500000
vt 0.489585 0.500000
vt 0.477464 0.500000
vt 0.477464 0.500000
vt 0.477464 0.500000
vt 0.477464 0.500000
vt 0.489585 0.500000
vt 0.489585 0.500000
vt 0.489585 0.500000
vt 0.489585 0.500000
vt 0.477464 0.500000
vt 0.477464 0.500000
vt 0.477464 0.500000
vt 0.477464 0.500000
vt 0.483525 0.500000
vt 0.483525 0.500000
vt 0.489585 0.500000
vt 0.489585 0.500000
vt 0.477464 0.500000
vt 0.477464 0.500000
vt 0.483525 0.500000
vt 0.483525 0.500000
vt 0.489585 0.500000
vt 0.489585 0.500000
vt 0.477464 0.500000
vt 0.477464 0.500000
vt 0.489585 0.500000
vt 0.489585 0.500000
vt 0.477464 0.500000
vt 0.477464 0.500000
s 1
g Right_Wing_Body
usemtl Body
f 4/4/1 11/11/2 73/73/3 38/38/4
f 88/88/5 90/90/6 36/36/7
f 32/32/8 96/96/9 26/26/10 15/15/11
f 12/12/12 4/4/1 38/38/4 65/65/13 22/22/14
f 10/10/15 3/3/16 43/43/17 71/71/18 19/19/19
f 42/42/20 79/79/21 76/76/22 46/46/23
f 11/11/2 6/6/24 28/28/25 73/73/3
f 6/6/24 83/83/26 62/62/27 55/55/28 28/28/25
f 7/7/29 8/8/30 84/84/31 51/51/32
f 75/75/33 52/52/34 6/6/24 11/11/2
f 85/85/35 60/60/36 82/82/37 8/8/30
f 50/50/38 85/85/35 8/8/30 7/7/29
f 74/74/39 27/27/40 48/48/41 77/77/42
f 66/66/43 69/69/44 95/95/45 94/94/46
f 5/5/47 86/86/48 49/49/49
f 8/8/30 82/82/37 64/64/50 84/84/31
f 79/79/21 50/50/38 7/7/29
f 54/54/51 63/63/52 81/81/53 61/61/54 58/58/55
f 47/47/56 57/57/57 59/59/58 86/86/48 5/5/47
f 3/3/16 9/9/59 80/80/60 43/43/17
f 72/72/61 41/41/62 44/44/63 67/67/64
f 94/94/46 95/95/45 87/87/65
f 9/9/59 5/5/47 49/49/49 80/80/60
f 68/68/66 45/45/67 4/4/1 12/12/12 21/21/68
f 66/66/43 37/37/69 40/40/70 69/69/44
f 7/7/29 51/51/32 76/76/22
f 39/39/71 78/78/72 9/9/59 3/3/16
f 26/26/10 18/18/73 10/10/15 17/17/74
f 79/79/21 7/7/29 76/76/22
f 16/16/75 23/23/76 93/93/77 30/30/78
f 52/52/34 83/83/26 6/6/24
f 78/78/72 47/47/56 5/5/47 9/9/59
f 70/70/79 39/39/71 3/3/16 10/10/15 18/18/73
f 45/45/67 75/75/33 11/11/2 4/4/1
f 24/24/80 21/21/68 12/12/12 20/20/81
f 72/72/61 67/67/64 90/90/6 91/91/82
f 20/20/81 12/12/12 22/22/14 23/23/76
f 2/2/83 20/20/81 23/23/76 16/16/75
f 87/87/65 95/95/45 31/31/84
f 96/96/9 70/70/79 18/18/73 26/26/10
f 14/14/85 24/24/80 20/20/81 2/2/83
f 91/91/82 90/90/6 88/88/5
f 23/23/76 22/22/14 65/65/13 93/93/77
f 37/37/69 74/74/39 77/77/42 40/40/70
f 89/89/86 68/68/66 21/21/68 24/24/80
f 17/17/74 10/10/15 19/19/19 25/25/87
f 1/1/88 17/17/74 25/25/87 13/13/89
f 33/33/90 91/91/82 88/88/5
f 25/25/87 19/19/19 71/71/18 92/92/91
f 13/13/89 25/25/87 92/92/91 34/34/92
f 15/15/11 26/26/10 17/17/74 1/1/88
f 29/29/93 94/94/46 87/87/65
f 35/35/94 89/89/86 24/24/80 14/14/85
f 27/27/40 53/53/95 56/56/96 48/48/41
