# Blender 3.3.1
# www.blender.org
mtllib cup_wall2.mtl
g Walls_V2.002
v 14.861610 24.965120 27.203991
v 14.383350 25.034880 26.328550
v 10.422990 24.965120 29.193930
v 18.934280 24.965120 24.544201
v 18.324961 25.034880 23.754351
v 9.858705 0.965122 27.613400
v 14.057020 0.965122 25.731190
v 13.578760 1.034878 24.855749
v 17.909189 0.965122 23.215401
v 22.540720 24.965120 21.280041
v 21.320391 0.965122 20.127960
v 17.484680 1.034878 22.281759
v 20.913670 1.034878 19.099979
v 21.815350 25.034880 20.595240
v 24.768570 25.034880 16.929001
v 27.111910 25.034880 12.845920
v 25.592140 24.965120 17.491911
v 23.772190 1.034878 15.397200
v 26.496780 0.965122 12.554470
v 24.206610 0.965122 16.544910
v 25.982260 1.034878 11.274430
v 27.483610 1.034878 6.844124
v 28.134510 0.965122 8.254890
v 28.787661 25.034880 8.446528
v 29.754560 25.034880 3.839156
v 29.744869 24.965120 8.727383
v 28.013399 24.965120 13.273060
v 30.743931 24.965120 3.966811
v 29.079479 0.965122 3.752052
v 30.985960 24.965120 -0.891436
v 29.988810 25.034880 -0.862749
v 29.484631 25.034880 -5.543411
v 28.235279 1.034878 2.227125
v 28.216761 1.034878 -2.450623
v 27.428560 1.034878 -7.061525
v 29.308411 0.965122 -0.843175
v 28.815680 0.965122 -5.417640
v 30.465019 24.965120 -5.727734
v 29.193930 24.965120 -10.422990
v 27.613400 0.965122 -9.858705
v 27.203991 24.965120 -14.861610
v 25.731190 0.965122 -14.057020
v 25.892179 1.034878 -11.479810
v 23.649530 1.034878 -15.584950
v 26.328550 25.034880 -14.383350
v 28.254450 25.034880 -10.087570
v 23.754351 25.034880 -18.324961
v 20.595240 25.034880 -21.815350
v 24.544201 24.965120 -18.934280
v 20.761780 1.034878 -19.264980
v 20.127960 0.965122 -21.320391
v 23.215401 0.965122 -17.909189
v 17.307711 1.034878 -22.419500
v 13.381520 1.034878 -24.962490
v 16.544910 0.965122 -24.206610
v 16.929001 25.034880 -24.768570
v 12.845920 25.034880 -27.111910
v 17.491911 24.965120 -25.592140
v 21.280041 24.965120 -22.540720
v 13.273060 24.965120 -28.013399
v 12.554470 0.965122 -26.496780
v 8.727383 24.965120 -29.744869
v 8.446528 25.034880 -28.787661
v 3.839156 25.034880 -29.754560
v 9.090326 1.034878 -26.824560
v 4.551169 1.034878 -27.954920
v -0.112132 1.034878 -28.322750
v 3.752052 0.965122 -29.079479
v 8.254890 0.965122 -28.134510
v 3.966811 24.965120 -30.743931
v -0.891436 24.965120 -30.985960
v -0.862749 25.034880 -29.988810
v -5.543411 25.034880 -29.484631
v -4.772375 1.034878 -27.918011
v -5.417640 0.965122 -28.815680
v -9.302439 1.034878 -26.751740
v -0.843175 0.965122 -29.308411
v -5.727734 24.965120 -30.465019
v -10.422990 24.965120 -29.193930
v -10.087570 25.034880 -28.254450
v -14.383350 25.034880 -26.328550
v -13.578760 1.034878 -24.855749
v -17.484680 1.034878 -22.281759
v -17.909189 0.965122 -23.215401
v -14.057020 0.965122 -25.731190
v -9.858705 0.965122 -27.613400
v -18.324961 25.034880 -23.754351
v -21.815350 25.034880 -20.595240
v -18.934280 24.965120 -24.544201
v -14.861610 24.965120 -27.203991
v -22.540720 24.965120 -21.280041
v -21.320391 0.965122 -20.127960
v -25.592140 24.965120 -17.491911
v -24.768570 25.034880 -16.929001
v -27.111910 25.034880 -12.845920
v -20.913670 1.034878 -19.099979
v -23.772190 1.034878 -15.397200
v -25.982260 1.034878 -11.274430
v -26.496780 0.965122 -12.554470
v -24.206610 0.965122 -16.544910
v -28.013399 24.965120 -13.273060
v -29.744869 24.965120 -8.727383
v -28.787661 25.034880 -8.446528
v -29.754560 25.034880 -3.839156
v -27.483610 1.034878 -6.844124
v -28.235279 1.034878 -2.227125
v -29.079479 0.965122 -3.752052
v -28.134510 0.965122 -8.254890
v -30.743931 24.965120 -3.966811
v -30.985960 24.965120 0.891436
v -29.988810 25.034880 0.862749
v -29.484631 25.034880 5.543411
v -28.216761 1.034878 2.450623
v -28.815680 0.965122 5.417640
v -29.308411 0.965122 0.843175
v -27.428560 1.034878 7.061525
v -25.892179 1.034878 11.479810
v -27.613400 0.965122 9.858705
v -28.254450 25.034880 10.087570
v -26.328550 25.034880 14.383350
v -29.193930 24.965120 10.422990
v -30.465019 24.965120 5.727734
v -27.203991 24.965120 14.861610
v -25.731190 0.965122 14.057020
v -24.544201 24.965120 18.934280
v -23.754351 25.034880 18.324961
v -20.595240 25.034880 21.815350
v -23.649530 1.034878 15.584950
v -20.761780 1.034878 19.264980
v -17.307711 1.034878 22.419500
v -20.127960 0.965122 21.320391
v -23.215401 0.965122 17.909189
v -21.280041 24.965120 22.540720
v -17.491911 24.965120 25.592140
v -16.929001 25.034880 24.768570
v -12.845920 25.034880 27.111910
v -13.381520 1.034878 24.962490
v -9.090326 1.034878 26.824560
v -12.554470 0.965122 26.496780
v -16.544910 0.965122 24.206610
v -13.273060 24.965120 28.013399
v -8.727383 24.965120 29.744869
v -8.446528 25.034880 28.787661
v -3.839156 25.034880 29.754560
v -4.551169 1.034878 27.954920
v -3.752052 0.965122 29.079479
v -8.254890 0.965122 28.134510
v 0.112132 1.034878 28.322750
v 4.772375 1.034878 27.918011
v 0.843175 0.965122 29.308411
v 0.862749 25.034880 29.988810
v 5.543411 25.034880 29.484631
v 0.891436 24.965120 30.985960
v -3.966811 24.965120 30.743931
v 5.727734 24.965120 30.465019
v 5.417640 0.965122 28.815680
v 10.087570 25.034880 28.254450
v 9.302439 1.034878 26.751740
vn 0.0383 0.9975 0.0586
vn 0.0286 0.9975 0.0639
vn 0.4081 -0.0695 0.9103
vn 0.5455 -0.0695 0.8352
vn -0.0383 -0.9975 -0.0586
vn -0.0286 -0.9975 -0.0638
vn 0.6694 -0.0695 0.7396
vn -0.0478 -0.9975 -0.0528
vn -0.0378 -0.9976 -0.0574
vn -0.0460 -0.9977 -0.0495
vn -0.6785 0.0710 -0.7312
vn -0.6695 0.0688 -0.7397
vn -0.5489 0.0703 -0.8329
vn 0.0470 0.9975 0.0519
vn 0.0545 0.9975 0.0439
vn -0.7770 0.0682 -0.6259
vn -0.8653 0.0676 -0.4966
vn 0.0607 0.9975 0.0348
vn -0.7895 0.0717 -0.6095
vn -0.8790 0.0722 -0.4712
vn -0.0527 -0.9978 -0.0407
vn -0.0580 -0.9978 -0.0311
vn -0.0636 -0.9973 -0.0365
vn -0.0617 -0.9979 -0.0209
vn -0.9446 0.0727 -0.3201
vn -0.0694 -0.9972 -0.0264
vn -0.9324 0.0671 -0.3552
vn -0.9765 0.0667 -0.2049
vn 0.0685 0.9975 0.0144
vn 0.0654 0.9975 0.0249
vn 0.8652 -0.0695 0.4966
vn 0.9322 -0.0695 0.3551
vn 0.9763 -0.0695 0.2049
vn 0.0699 0.9975 0.0035
vn 0.9963 -0.0695 0.0496
vn -0.9921 0.0662 0.1069
vn 0.0696 0.9975 -0.0075
vn -0.9966 0.0664 -0.0496
vn -0.9973 0.0734 0.0039
vn -0.9830 0.0736 0.1680
vn -0.0641 -0.9979 0.0003
vn -0.0629 -0.9980 0.0108
vn -0.0757 -0.9971 0.0082
vn 0.9629 -0.0695 -0.2607
vn 0.9918 -0.0695 -0.1068
vn -0.0738 -0.9971 0.0200
vn 0.9103 -0.0695 -0.4081
vn -0.0601 -0.9980 0.0209
vn -0.0699 -0.9971 0.0314
vn -0.9420 0.0737 0.3275
vn -0.0558 -0.9980 0.0305
vn -0.8752 0.0738 0.4781
vn -0.9105 0.0659 0.4082
vn 0.0639 0.9975 -0.0286
vn 0.0675 0.9975 -0.0183
vn -0.9631 0.0660 0.2607
vn 0.0638 0.9975 -0.0286
vn 0.0586 0.9975 -0.0383
vn -0.8354 0.0659 0.5456
vn -0.7398 0.0660 0.6696
vn 0.0519 0.9975 -0.0470
vn -0.7846 0.0737 0.6157
vn -0.6725 0.0736 0.7364
vn -0.0501 -0.9980 0.0393
vn -0.0431 -0.9980 0.0471
vn -0.0567 -0.9971 0.0513
vn -0.0349 -0.9979 0.0538
vn -0.5422 0.0734 0.8371
vn -0.0478 -0.9971 0.0593
vn -0.6259 0.0662 0.7771
vn -0.4967 0.0664 0.8654
vn 0.0348 0.9975 -0.0607
vn 0.0439 0.9975 -0.0545
vn 0.7396 -0.0695 -0.6694
vn 0.6258 -0.0695 -0.7769
vn 0.4966 -0.0695 -0.8652
vn 0.0249 0.9975 -0.0654
vn 0.3551 -0.0695 -0.9322
vn -0.2049 0.0671 0.9765
vn 0.0144 0.9975 -0.0685
vn -0.3552 0.0667 0.9324
vn -0.2410 0.0727 0.9678
vn -0.0784 0.0722 0.9943
vn -0.0157 -0.9979 0.0632
vn -0.0052 -0.9978 0.0656
vn -0.0153 -0.9972 0.0727
vn 0.2049 -0.0695 -0.9763
vn -0.0267 -0.9972 0.0701
vn 0.0035 0.9975 -0.0699
vn 0.0496 -0.0695 -0.9963
vn 0.1068 0.0682 0.9919
vn -0.0075 0.9975 -0.0696
vn -0.0496 0.0676 0.9965
vn 0.0863 0.0717 0.9937
vn 0.0058 -0.9978 0.0663
vn 0.0168 -0.9977 0.0654
vn 0.0077 -0.9974 0.0719
vn 0.2487 0.0710 0.9660
vn -0.1068 -0.0695 -0.9918
vn -0.0037 -0.9973 0.0733
vn -0.0183 0.9975 -0.0675
vn -0.2607 -0.0695 -0.9629
vn 0.4081 0.0695 0.9103
vn -0.0286 0.9975 -0.0639
vn 0.2607 0.0688 0.9630
vn 0.4043 0.0703 0.9119
vn 0.0378 -0.9976 0.0574
vn 0.5489 0.0703 0.8329
vn 0.5455 0.0695 0.8352
vn 0.0278 -0.9976 0.0628
vn 0.0383 -0.9975 0.0586
vn 0.0286 -0.9975 0.0638
vn 0.6695 0.0688 0.7397
vn -0.0470 0.9975 -0.0519
vn -0.0383 0.9975 -0.0586
vn -0.4081 -0.0695 -0.9103
vn -0.5455 -0.0695 -0.8352
vn -0.6694 -0.0695 -0.7396
vn -0.7769 -0.0695 -0.6258
vn -0.0545 0.9975 -0.0439
vn 0.8653 0.0676 0.4966
vn -0.0607 0.9975 -0.0348
vn 0.7770 0.0682 0.6259
vn 0.7895 0.0717 0.6095
vn 0.0527 -0.9978 0.0407
vn 0.8790 0.0722 0.4712
vn 0.0580 -0.9978 0.0311
vn 0.0636 -0.9973 0.0365
vn -0.8652 -0.0695 -0.4966
vn 0.0563 -0.9974 0.0454
vn -0.0654 0.9975 -0.0249
vn -0.9322 -0.0695 -0.3551
vn 0.9765 0.0667 0.2049
vn -0.0685 0.9975 -0.0144
vn 0.9324 0.0671 0.3552
vn 0.9446 0.0727 0.3201
vn 0.9844 0.0731 0.1603
vn 0.0617 -0.9979 0.0209
vn 0.0637 -0.9979 0.0104
vn 0.0735 -0.9972 0.0154
vn -0.9763 -0.0695 -0.2049
vn 0.0694 -0.9972 0.0264
vn -0.0699 0.9975 -0.0035
vn -0.9963 -0.0695 -0.0496
vn 0.9921 0.0662 -0.1069
vn -0.0696 0.9975 0.0075
vn 0.9966 0.0664 0.0496
vn 0.9973 0.0734 -0.0039
vn 0.0641 -0.9979 -0.0003
vn 0.9830 0.0736 -0.1680
vn 0.0629 -0.9980 -0.0108
vn 0.0757 -0.9971 -0.0082
vn 0.9631 0.0660 -0.2607
vn 0.0601 -0.9980 -0.0209
vn 0.9420 0.0737 -0.3275
vn 0.0738 -0.9971 -0.0200
vn 0.9105 0.0659 -0.4082
vn -0.0639 0.9975 0.0286
vn -0.0675 0.9975 0.0183
vn -0.9918 -0.0695 0.1068
vn -0.9629 -0.0695 0.2607
vn -0.9103 -0.0695 0.4081
vn -0.0638 0.9975 0.0286
vn -0.8352 -0.0695 0.5455
vn -0.0586 0.9975 0.0383
vn 0.7398 0.0660 -0.6696
vn -0.0519 0.9975 0.0470
vn 0.8354 0.0659 -0.5456
vn 0.7846 0.0737 -0.6157
vn 0.0501 -0.9980 -0.0393
vn 0.6725 0.0736 -0.7364
vn 0.0431 -0.9980 -0.0471
vn 0.0567 -0.9971 -0.0513
vn -0.7396 -0.0695 0.6694
vn 0.0642 -0.9971 -0.0419
vn -0.0439 0.9975 0.0545
vn -0.6258 -0.0695 0.7769
vn 0.4967 0.0664 -0.8654
vn -0.0348 0.9975 0.0607
vn 0.6259 0.0662 -0.7771
vn 0.5422 0.0734 -0.8371
vn 0.3970 0.0731 -0.9149
vn 0.0349 -0.9979 -0.0538
vn 0.0257 -0.9979 -0.0592
vn 0.0377 -0.9971 -0.0656
vn -0.4966 -0.0695 0.8652
vn 0.0478 -0.9971 -0.0593
vn -0.0249 0.9975 0.0654
vn -0.3551 -0.0695 0.9322
vn 0.2049 0.0671 -0.9765
vn -0.0144 0.9975 0.0685
vn 0.3552 0.0667 -0.9324
vn 0.2410 0.0727 -0.9678
vn 0.0157 -0.9979 -0.0632
vn 0.0784 0.0722 -0.9943
vn 0.0052 -0.9978 -0.0656
vn 0.0153 -0.9972 -0.0727
vn 0.0496 0.0676 -0.9965
vn -0.0058 -0.9978 -0.0663
vn -0.0863 0.0717 -0.9937
vn 0.0037 -0.9973 -0.0733
vn -0.1068 0.0682 -0.9919
vn 0.0075 0.9975 0.0696
vn -0.0035 0.9975 0.0699
vn -0.2049 -0.0695 0.9763
vn -0.0496 -0.0695 0.9963
vn 0.1068 -0.0695 0.9918
vn 0.0183 0.9975 0.0675
vn 0.2607 -0.0695 0.9629
vn -0.4081 0.0695 -0.9103
vn -0.2607 0.0688 -0.9630
vn -0.4043 0.0703 -0.9119
vn -0.2487 0.0710 -0.9660
vn -0.0278 -0.9976 -0.0628
vn -0.0168 -0.9977 -0.0654
vn -0.0186 -0.9975 -0.0687
vn -0.0077 -0.9974 -0.0719
vn 0.0267 -0.9972 -0.0701
vn 0.0558 -0.9980 -0.0305
vn 0.8752 0.0738 -0.4781
vn 0.0699 -0.9971 -0.0314
vn 0.0756 -0.9971 0.0038
vn 0.0460 -0.9977 0.0495
vn 0.6785 0.0710 0.7312
vn 0.0478 -0.9975 0.0528
vn 0.0186 -0.9975 0.0687
vn -0.0257 -0.9979 0.0592
vn -0.3970 0.0731 0.9149
vn -0.0377 -0.9971 0.0656
vn 0.8352 -0.0695 -0.5455
vn -0.0642 -0.9971 0.0419
vn -0.0756 -0.9971 -0.0038
vn -0.0637 -0.9979 -0.0104
vn -0.9844 0.0731 -0.1603
vn -0.0735 -0.9972 -0.0154
vn 0.7769 -0.0695 0.6258
vn -0.0563 -0.9974 -0.0454
vn -0.5455 0.0695 -0.8352
s 0
f 1//1 5//1 2//1
f 1//2 2//2 3//2
f 3//3 6//3 1//3
f 1//4 7//4 4//4
f 4//1 5//1 1//1
f 1//3 6//3 7//3
f 9//5 7//5 8//5
f 7//6 6//6 8//6
f 4//4 7//4 9//4
f 10//7 9//7 11//7
f 4//7 9//7 10//7
f 11//8 9//8 12//8
f 12//9 9//9 8//9
f 13//10 11//10 12//10
f 12//11 14//11 13//11
f 5//12 14//12 12//12
f 5//13 12//13 8//13
f 10//14 14//14 4//14
f 10//15 15//15 14//15
f 4//14 14//14 5//14
f 14//16 15//16 13//16
f 15//17 16//17 18//17
f 17//18 16//18 15//18
f 17//15 15//15 10//15
f 13//19 15//19 18//19
f 18//20 16//20 21//20
f 18//21 20//21 13//21
f 21//22 19//22 18//22
f 19//23 20//23 18//23
f 22//24 23//24 21//24
f 21//25 24//25 22//25
f 23//26 19//26 21//26
f 16//27 24//27 21//27
f 24//28 25//28 22//28
f 26//29 25//29 24//29
f 26//30 24//30 27//30
f 27//30 24//30 16//30
f 27//18 16//18 17//18
f 17//31 20//31 27//31
f 27//31 20//31 19//31
f 27//32 19//32 26//32
f 26//33 23//33 28//33
f 28//29 25//29 26//29
f 26//32 19//32 23//32
f 28//34 31//34 25//34
f 28//35 29//35 30//35
f 28//33 23//33 29//33
f 30//34 31//34 28//34
f 31//36 32//36 34//36
f 30//37 32//37 31//37
f 25//38 31//38 33//38
f 33//39 31//39 34//39
f 34//40 32//40 35//40
f 34//41 36//41 33//41
f 35//42 37//42 34//42
f 37//43 36//43 34//43
f 38//44 37//44 39//44
f 38//45 36//45 37//45
f 40//46 37//46 35//46
f 39//44 37//44 40//44
f 41//47 40//47 42//47
f 39//47 40//47 41//47
f 43//48 40//48 35//48
f 42//49 40//49 43//49
f 35//50 46//50 43//50
f 44//51 42//51 43//51
f 43//52 45//52 44//52
f 46//53 45//53 43//53
f 39//54 45//54 46//54
f 39//55 46//55 38//55
f 38//55 46//55 32//55
f 32//56 46//56 35//56
f 41//57 45//57 39//57
f 41//58 47//58 45//58
f 45//59 47//59 44//59
f 47//60 48//60 50//60
f 49//61 48//61 47//61
f 49//58 47//58 41//58
f 44//62 47//62 50//62
f 50//63 48//63 53//63
f 50//64 52//64 44//64
f 53//65 51//65 50//65
f 51//66 52//66 50//66
f 54//67 55//67 53//67
f 53//68 56//68 54//68
f 55//69 51//69 53//69
f 48//70 56//70 53//70
f 56//71 57//71 54//71
f 58//72 57//72 56//72
f 58//73 56//73 59//73
f 59//73 56//73 48//73
f 49//74 52//74 59//74
f 59//61 48//61 49//61
f 59//74 52//74 51//74
f 59//75 51//75 58//75
f 58//76 55//76 60//76
f 60//72 57//72 58//72
f 58//75 51//75 55//75
f 60//77 63//77 57//77
f 60//78 61//78 62//78
f 60//76 55//76 61//76
f 62//77 63//77 60//77
f 63//79 64//79 66//79
f 62//80 64//80 63//80
f 57//81 63//81 65//81
f 65//82 63//82 66//82
f 66//83 64//83 67//83
f 66//84 69//84 65//84
f 67//85 68//85 66//85
f 68//86 69//86 66//86
f 70//87 69//87 68//87
f 62//87 69//87 70//87
f 62//78 61//78 69//78
f 69//88 61//88 65//88
f 70//80 64//80 62//80
f 70//89 72//89 64//89
f 70//90 68//90 71//90
f 71//89 72//89 70//89
f 72//91 73//91 74//91
f 71//92 73//92 72//92
f 64//93 72//93 67//93
f 67//94 72//94 74//94
f 74//95 77//95 67//95
f 76//96 75//96 74//96
f 75//97 77//97 74//97
f 74//98 73//98 76//98
f 78//99 77//99 75//99
f 71//99 77//99 78//99
f 77//100 68//100 67//100
f 71//90 68//90 77//90
f 78//92 73//92 71//92
f 78//101 80//101 73//101
f 78//102 75//102 79//102
f 79//101 80//101 78//101
f 80//103 81//103 82//103
f 79//104 81//104 80//104
f 73//105 80//105 76//105
f 76//106 80//106 82//106
f 83//107 84//107 82//107
f 87//108 83//108 82//108
f 81//109 87//109 82//109
f 86//110 76//110 82//110
f 84//111 85//111 82//111
f 85//112 86//112 82//112
f 87//113 88//113 83//113
f 89//114 88//114 87//114
f 89//115 87//115 90//115
f 90//115 87//115 81//115
f 90//104 81//104 79//104
f 79//116 86//116 90//116
f 90//116 86//116 85//116
f 90//117 85//117 89//117
f 89//118 84//118 91//118
f 91//114 88//114 89//114
f 89//117 85//117 84//117
f 91//118 84//118 92//118
f 91//119 92//119 93//119
f 91//120 94//120 88//120
f 93//120 94//120 91//120
f 94//121 95//121 97//121
f 93//122 95//122 94//122
f 88//123 94//123 96//123
f 96//124 94//124 97//124
f 97//125 100//125 96//125
f 97//126 95//126 98//126
f 98//127 99//127 97//127
f 99//128 100//128 97//128
f 101//129 100//129 99//129
f 93//129 100//129 101//129
f 100//130 92//130 96//130
f 93//119 92//119 100//119
f 101//122 95//122 93//122
f 101//131 103//131 95//131
f 101//132 99//132 102//132
f 102//131 103//131 101//131
f 103//133 104//133 105//133
f 102//134 104//134 103//134
f 95//135 103//135 98//135
f 98//136 103//136 105//136
f 105//137 104//137 106//137
f 105//138 108//138 98//138
f 106//139 107//139 105//139
f 107//140 108//140 105//140
f 109//141 108//141 107//141
f 102//141 108//141 109//141
f 108//142 99//142 98//142
f 102//132 99//132 108//132
f 109//134 104//134 102//134
f 109//143 111//143 104//143
f 109//144 107//144 110//144
f 110//143 111//143 109//143
f 111//145 112//145 113//145
f 110//146 112//146 111//146
f 104//147 111//147 106//147
f 106//148 111//148 113//148
f 113//149 115//149 106//149
f 113//150 112//150 116//150
f 116//151 114//151 113//151
f 114//152 115//152 113//152
f 112//153 119//153 116//153
f 117//154 118//154 116//154
f 116//155 119//155 117//155
f 118//156 114//156 116//156
f 119//157 120//157 117//157
f 121//158 120//158 119//158
f 121//159 119//159 122//159
f 122//159 119//159 112//159
f 122//146 112//146 110//146
f 110//160 115//160 122//160
f 122//161 114//161 121//161
f 122//160 115//160 114//160
f 121//162 118//162 123//162
f 123//163 120//163 121//163
f 121//161 114//161 118//161
f 123//164 124//164 125//164
f 123//162 118//162 124//162
f 123//165 126//165 120//165
f 125//165 126//165 123//165
f 126//166 127//166 129//166
f 125//167 127//167 126//167
f 120//168 126//168 128//168
f 128//169 126//169 129//169
f 129//170 132//170 128//170
f 129//171 127//171 130//171
f 130//172 131//172 129//172
f 131//173 132//173 129//173
f 133//174 132//174 131//174
f 125//174 132//174 133//174
f 132//175 124//175 128//175
f 125//164 124//164 132//164
f 133//167 127//167 125//167
f 133//176 135//176 127//176
f 133//177 131//177 134//177
f 134//176 135//176 133//176
f 135//178 136//178 137//178
f 134//179 136//179 135//179
f 127//180 135//180 130//180
f 130//181 135//181 137//181
f 137//182 136//182 138//182
f 137//183 140//183 130//183
f 138//184 139//184 137//184
f 139//185 140//185 137//185
f 141//186 140//186 139//186
f 134//186 140//186 141//186
f 140//187 131//187 130//187
f 134//177 131//177 140//177
f 141//179 136//179 134//179
f 141//188 143//188 136//188
f 141//189 139//189 142//189
f 142//188 143//188 141//188
f 143//190 144//190 145//190
f 142//191 144//191 143//191
f 136//192 143//192 138//192
f 138//193 143//193 145//193
f 145//194 147//194 138//194
f 145//195 144//195 148//195
f 148//196 146//196 145//196
f 146//197 147//197 145//197
f 144//198 151//198 148//198
f 149//199 150//199 148//199
f 148//200 151//200 149//200
f 150//201 146//201 148//201
f 151//202 152//202 149//202
f 153//203 152//203 151//203
f 153//204 151//204 154//204
f 154//204 151//204 144//204
f 154//205 147//205 146//205
f 142//205 147//205 154//205
f 154//191 144//191 142//191
f 154//206 146//206 153//206
f 153//207 150//207 155//207
f 155//203 152//203 153//203
f 153//206 146//206 150//206
f 155//208 157//208 152//208
f 155//209 156//209 3//209
f 155//207 150//207 156//207
f 3//208 157//208 155//208
f 157//210 2//210 8//210
f 3//2 2//2 157//2
f 152//211 157//211 158//211
f 158//212 157//212 8//212
f 149//213 152//213 158//213
f 6//214 158//214 8//214
f 158//215 156//215 149//215
f 6//216 156//216 158//216
f 3//209 156//209 6//209
f 156//217 150//217 149//217
f 147//218 139//218 138//218
f 142//189 139//189 147//189
f 128//219 124//219 117//219
f 117//220 120//220 128//220
f 124//221 118//221 117//221
f 115//222 107//222 106//222
f 110//144 107//144 115//144
f 96//223 92//223 83//223
f 83//224 88//224 96//224
f 92//225 84//225 83//225
f 86//226 75//226 76//226
f 79//102 75//102 86//102
f 65//227 61//227 54//227
f 54//228 57//228 65//228
f 61//229 55//229 54//229
f 49//230 42//230 52//230
f 52//231 42//231 44//231
f 41//230 42//230 49//230
f 38//37 32//37 30//37
f 30//45 36//45 38//45
f 30//35 29//35 36//35
f 36//232 29//232 33//232
f 33//233 29//233 22//233
f 22//234 25//234 33//234
f 29//235 23//235 22//235
f 17//236 11//236 20//236
f 20//237 11//237 13//237
f 10//236 11//236 17//236
f 2//238 5//238 8//238
