# Blender 3.3.1
# www.blender.org
mtllib cup_wall1.mtl
g Walls_V2.001
v 16.060169 24.965120 29.397949
v 15.581910 25.034880 28.522499
v 11.499260 24.965120 31.463240
v 19.658939 25.034880 25.881571
v 15.255580 0.965122 27.925150
v 20.262329 24.965120 26.675949
v 24.011860 24.965120 23.358061
v 23.296810 25.034880 22.662479
v 19.436211 0.965122 25.194851
v 18.826891 1.034878 24.404989
v 23.138260 0.965122 21.844160
v 22.412889 1.034878 21.159361
v 26.414270 25.034880 18.937149
v 25.447001 1.034878 17.392700
v 27.854521 1.034878 13.197780
v 26.270571 0.965122 17.955601
v 28.941681 25.034880 14.788790
v 29.829990 24.965120 15.242710
v 27.225010 24.965120 19.518391
v 30.822580 25.034880 10.310080
v 32.014950 25.034880 5.601058
v 31.768620 24.965120 10.626530
v 29.576170 1.034878 8.677886
v 30.569559 1.034878 3.944314
v 30.533390 0.965122 8.958739
v 28.756010 0.965122 13.624920
v 32.997589 24.965120 5.772972
v 31.558929 0.965122 4.071969
v 30.810230 1.034878 -0.886380
v 31.807381 0.965122 -0.915068
v 33.489460 24.965120 0.790457
v 33.233219 24.965120 -4.209716
v 32.243561 25.034880 -4.084354
v 32.492168 25.034880 0.766918
v 30.292240 1.034878 -5.695249
v 31.274679 25.034880 -8.844389
v 29.607189 25.034880 -13.406850
v 32.234600 24.965120 -9.115851
v 29.028360 1.034878 -10.363880
v 27.049709 1.034878 -14.777320
v 29.967840 0.965122 -10.699300
v 31.272631 0.965122 -5.879572
v 30.515921 24.965120 -13.818350
v 27.925150 0.965122 -15.255580
v 24.404989 1.034878 -18.826891
v 25.194851 0.965122 -19.436211
v 28.115570 24.965120 -18.212179
v 25.087151 24.965120 -22.199169
v 24.340080 25.034880 -21.538099
v 27.278311 25.034880 -17.669830
v 21.159361 1.034878 -22.412889
v 20.858141 25.034880 -24.925230
v 16.910250 25.034880 -27.755581
v 21.498341 24.965120 -25.690269
v 17.392700 1.034878 -25.447001
v 13.197780 1.034878 -27.854521
v 21.844160 0.965122 -23.138260
v 17.955601 0.965122 -26.270571
v 13.624920 0.965122 -28.756010
v 17.429279 24.965120 -28.607491
v 12.970890 24.965120 -30.885670
v 12.584630 25.034880 -29.965919
v 7.977877 25.034880 -31.506870
v 8.677886 1.034878 -29.576170
v 3.944314 1.034878 -30.569559
v 8.958739 0.965122 -30.533390
v 8.222743 24.965120 -32.473911
v 4.071969 0.965122 -31.558929
v 3.290917 24.965120 -33.336739
v -0.886380 1.034878 -30.810230
v -0.915068 0.965122 -31.807381
v -1.714424 24.965120 -33.454880
v -5.879572 0.965122 -31.272631
v -5.695249 1.034878 -30.292240
v -1.663370 25.034880 -32.458630
v -10.363880 1.034878 -29.028360
v -6.482498 25.034880 -31.848181
v -11.156820 25.034880 -30.526291
v -6.681466 24.965120 -32.825699
v -11.499260 24.965120 -31.463240
v -10.699300 0.965122 -29.967840
v -15.255580 0.965122 -27.925150
v -14.777320 1.034878 -27.049709
v -18.826891 1.034878 -24.404989
v -19.658939 25.034880 -25.881571
v -15.581910 25.034880 -28.522499
v -16.060169 24.965120 -29.397949
v -20.262329 24.965120 -26.675949
v -19.436211 0.965122 -25.194851
v -24.011860 24.965120 -23.358061
v -23.296810 25.034880 -22.662479
v -26.414270 25.034880 -18.937149
v -22.412889 1.034878 -21.159361
v -25.447001 1.034878 -17.392700
v -23.138260 0.965122 -21.844160
v -27.225010 24.965120 -19.518391
v -26.270571 0.965122 -17.955601
v -28.756010 0.965122 -13.624920
v -29.829990 24.965120 -15.242710
v -27.854521 1.034878 -13.197780
v -30.822580 25.034880 -10.310080
v -29.576170 1.034878 -8.677886
v -28.941681 25.034880 -14.788790
v -32.014950 25.034880 -5.601058
v -30.569559 1.034878 -3.944314
v -30.533390 0.965122 -8.958739
v -31.768620 24.965120 -10.626530
v -32.997589 24.965120 -5.772972
v -31.558929 0.965122 -4.071969
v -33.489460 24.965120 -0.790457
v -30.810230 1.034878 0.886380
v -31.807381 0.965122 0.915068
v -31.272631 0.965122 5.879572
v -30.292240 1.034878 5.695249
v -33.233219 24.965120 4.209716
v -32.234600 24.965120 9.115851
v -31.274679 25.034880 8.844389
v -32.243561 25.034880 4.084354
v -32.492168 25.034880 -0.766918
v -29.028360 1.034878 10.363880
v -29.607189 25.034880 13.406850
v -27.278311 25.034880 17.669830
v -30.515921 24.965120 13.818350
v -27.049709 1.034878 14.777320
v -24.404989 1.034878 18.826891
v -27.925150 0.965122 15.255580
v -29.967840 0.965122 10.699300
v -28.115570 24.965120 18.212179
v -25.194851 0.965122 19.436211
v -21.844160 0.965122 23.138260
v -25.087151 24.965120 22.199169
v -21.159361 1.034878 22.412889
v -20.858141 25.034880 24.925230
v -17.392700 1.034878 25.447001
v -24.340080 25.034880 21.538099
v -16.910250 25.034880 27.755581
v -13.197780 1.034878 27.854521
v -17.955601 0.965122 26.270571
v -21.498341 24.965120 25.690269
v -17.429279 24.965120 28.607491
v -13.624920 0.965122 28.756010
v -12.970890 24.965120 30.885670
v -8.958739 0.965122 30.533390
v -8.677886 1.034878 29.576170
v -12.584630 25.034880 29.965919
v -3.944314 1.034878 30.569559
v -7.977877 25.034880 31.506870
v -3.192916 25.034880 32.344002
v -8.222743 24.965120 32.473911
v -3.290917 24.965120 33.336739
v -4.071969 0.965122 31.558929
v 0.915068 0.965122 31.807381
v 0.886380 1.034878 30.810230
v 1.663370 25.034880 32.458630
v 5.695249 1.034878 30.292240
v 5.879572 0.965122 31.272631
v 6.482498 25.034880 31.848181
v 10.363880 1.034878 29.028360
v 14.777320 1.034878 27.049709
v 10.699300 0.965122 29.967840
v 11.156820 25.034880 30.526291
v 6.681466 24.965120 32.825699
v 1.714424 24.965120 33.454880
v 3.192916 25.034880 -32.344002
vn 0.0380 0.9976 0.0587
vn 0.0289 0.9976 0.0637
vn 0.4115 -0.0696 0.9087
vn 0.5424 -0.0696 0.8373
vn 0.6611 -0.0689 0.7471
vn 0.0464 0.9976 0.0524
vn 0.5454 -0.0703 0.8352
vn 0.6694 -0.0710 0.7395
vn -0.0383 -0.9975 -0.0586
vn -0.0470 -0.9975 -0.0519
vn -0.6694 0.0710 -0.7395
vn -0.7651 0.0683 -0.6403
vn -0.7768 0.0716 -0.6257
vn -0.0545 -0.9975 -0.0439
vn -0.0607 -0.9975 -0.0348
vn -0.8651 0.0721 -0.4965
vn -0.8520 0.0677 -0.5191
vn 0.0597 0.9976 0.0364
vn 0.0645 0.9976 0.0271
vn -0.9199 0.0673 -0.3863
vn -0.9672 0.0669 -0.2449
vn 0.0678 0.9976 0.0172
vn -0.9320 0.0725 -0.3550
vn -0.0654 -0.9975 -0.0249
vn -0.9761 0.0729 -0.2048
vn -0.0685 -0.9975 -0.0144
vn 0.8651 -0.0722 0.4965
vn 0.9199 -0.0672 0.3863
vn 0.9320 -0.0726 0.3550
vn 0.9761 -0.0730 0.2048
vn 0.9672 -0.0668 0.2449
vn 0.9930 -0.0665 0.0980
vn -0.0699 -0.9975 -0.0035
vn 0.9961 -0.0733 0.0496
vn 0.9965 -0.0662 -0.0511
vn 0.0699 0.9976 -0.0036
vn 0.0696 0.9976 0.0069
vn -0.9965 0.0663 0.0511
vn -0.9930 0.0666 -0.0980
vn -0.9961 0.0732 -0.0496
vn 0.0685 0.9976 -0.0140
vn -0.9916 0.0735 0.1068
vn -0.9778 0.0661 0.1990
vn -0.9372 0.0660 0.3425
vn 0.0657 0.9976 -0.0240
vn -0.9626 0.0736 0.2606
vn -0.9100 0.0737 0.4080
vn -0.0675 -0.9975 0.0183
vn -0.0638 -0.9975 0.0286
vn 0.9916 -0.0736 -0.1068
vn 0.9778 -0.0660 -0.1990
vn -0.0696 -0.9975 0.0075
vn 0.9626 -0.0737 -0.2606
vn 0.9100 -0.0738 -0.4080
vn 0.9372 -0.0659 -0.3425
vn -0.0586 -0.9975 0.0383
vn 0.8757 -0.0659 -0.4784
vn 0.8350 -0.0738 -0.5453
vn 0.7946 -0.0659 -0.6036
vn 0.0557 0.9976 -0.0423
vn 0.0614 0.9976 -0.0335
vn -0.7946 0.0660 0.6035
vn -0.8757 0.0660 0.4784
vn -0.8350 0.0737 0.5453
vn 0.0488 0.9976 -0.0501
vn -0.7394 0.0736 0.6692
vn -0.6958 0.0661 0.7152
vn -0.5814 0.0663 0.8109
vn 0.0408 0.9976 -0.0569
vn -0.6256 0.0734 0.7767
vn -0.0439 -0.9975 0.0545
vn -0.4964 0.0732 0.8650
vn -0.0348 -0.9975 0.0607
vn 0.4964 -0.0733 -0.8650
vn 0.5814 -0.0662 -0.8109
vn 0.6256 -0.0736 -0.7767
vn 0.4540 -0.0665 -0.8885
vn 0.0318 0.9976 -0.0623
vn -0.3165 0.0669 0.9462
vn 0.0222 0.9976 -0.0663
vn -0.4540 0.0666 0.8885
vn -0.3550 0.0729 0.9320
vn -0.0144 -0.9975 0.0685
vn -0.2048 0.0725 0.9761
vn -0.0249 -0.9975 0.0654
vn 0.2048 -0.0726 -0.9761
vn 0.3165 -0.0668 -0.9462
vn 0.3550 -0.0730 -0.9320
vn 0.1719 -0.0672 -0.9828
vn -0.0035 -0.9975 0.0699
vn 0.0496 -0.0722 -0.9962
vn -0.1068 -0.0716 -0.9917
vn 0.0235 -0.0677 -0.9974
vn 0.0075 -0.9975 0.0696
vn 0.1068 0.0716 0.9917
vn 0.1254 0.0683 0.9898
vn 0.0183 -0.9975 0.0675
vn 0.2607 0.0710 0.9628
vn 0.2715 0.0689 0.9600
vn -0.0190 0.9976 -0.0673
vn -0.0088 0.9976 -0.0694
vn -0.2715 -0.0689 -0.9600
vn -0.2607 -0.0710 -0.9628
vn -0.1254 -0.0682 -0.9898
vn -0.4081 -0.0703 -0.9102
vn 0.0286 -0.9975 0.0638
vn 0.0383 -0.9975 0.0586
vn 0.5455 0.0703 0.8352
vn 0.4081 0.0703 0.9102
vn 0.4115 0.0696 0.9087
vn 0.5423 0.0696 0.8373
vn -0.0380 0.9976 -0.0587
vn -0.0289 0.9976 -0.0637
vn -0.5424 -0.0696 -0.8373
vn -0.4115 -0.0696 -0.9087
vn -0.6611 -0.0689 -0.7471
vn -0.5454 -0.0703 -0.8352
vn -0.0464 0.9976 -0.0524
vn 0.7651 0.0683 0.6403
vn -0.0536 0.9976 -0.0449
vn 0.6611 0.0689 0.7471
vn 0.6694 0.0710 0.7395
vn 0.0470 -0.9975 0.0519
vn 0.0545 -0.9975 0.0439
vn 0.7768 0.0716 0.6257
vn -0.7768 -0.0716 -0.6257
vn -0.7651 -0.0682 -0.6403
vn -0.6694 -0.0710 -0.7395
vn -0.8651 -0.0722 -0.4965
vn 0.0607 -0.9975 0.0348
vn -0.8520 -0.0677 -0.5191
vn 0.9320 0.0725 0.3550
vn 0.9199 0.0673 0.3863
vn 0.8651 0.0721 0.4965
vn 0.0654 -0.9975 0.0249
vn -0.0645 0.9976 -0.0271
vn -0.0597 0.9976 -0.0364
vn 0.8520 0.0677 0.5191
vn 0.9672 0.0669 0.2449
vn 0.9761 0.0729 0.2048
vn 0.0685 -0.9975 0.0144
vn -0.9320 -0.0726 -0.3550
vn -0.9672 -0.0668 -0.2449
vn -0.9761 -0.0730 -0.2048
vn 0.0699 -0.9975 0.0035
vn -0.9961 -0.0733 -0.0496
vn -0.9930 -0.0665 -0.0980
vn -0.9965 -0.0662 0.0511
vn -0.9916 -0.0736 0.1068
vn 0.0696 -0.9975 -0.0075
vn -0.9778 -0.0660 0.1990
vn -0.0685 0.9976 0.0140
vn -0.0699 0.9976 0.0036
vn 0.9778 0.0661 -0.1990
vn 0.9965 0.0663 -0.0511
vn 0.9916 0.0735 -0.1068
vn -0.0696 0.9976 -0.0069
vn 0.9930 0.0666 0.0980
vn 0.9961 0.0732 0.0496
vn -0.0657 0.9976 0.0240
vn 0.9626 0.0736 -0.2606
vn 0.9372 0.0660 -0.3425
vn 0.8757 0.0660 -0.4784
vn -0.0614 0.9976 0.0335
vn 0.9100 0.0737 -0.4080
vn 0.0586 -0.9975 -0.0383
vn 0.8350 0.0737 -0.5453
vn 0.0638 -0.9975 -0.0286
vn -0.9626 -0.0737 0.2606
vn -0.9372 -0.0659 0.3425
vn -0.9100 -0.0738 0.4080
vn 0.0675 -0.9975 -0.0183
vn -0.8350 -0.0738 0.5453
vn -0.8757 -0.0659 0.4784
vn -0.7946 -0.0659 0.6036
vn -0.7394 -0.0737 0.6692
vn 0.0519 -0.9975 -0.0470
vn 0.6256 0.0734 -0.7767
vn 0.6958 0.0661 -0.7152
vn 0.7394 0.0736 -0.6692
vn 0.0439 -0.9975 -0.0545
vn -0.0488 0.9976 0.0501
vn -0.0557 0.9976 0.0423
vn 0.7946 0.0660 -0.6035
vn 0.5814 0.0663 -0.8109
vn 0.4964 0.0732 -0.8650
vn 0.0348 -0.9975 -0.0607
vn -0.6256 -0.0736 0.7767
vn -0.5814 -0.0662 0.8109
vn -0.4964 -0.0733 0.8650
vn -0.3550 -0.0730 0.9320
vn -0.4540 -0.0665 0.8885
vn 0.0249 -0.9975 -0.0654
vn 0.3550 0.0729 -0.9320
vn 0.3165 0.0669 -0.9462
vn 0.0144 -0.9975 -0.0685
vn 0.2048 0.0725 -0.9761
vn 0.1719 0.0673 -0.9828
vn -0.0121 0.9976 0.0689
vn -0.0222 0.9976 0.0663
vn -0.1719 -0.0672 0.9828
vn -0.3165 -0.0668 0.9462
vn -0.2048 -0.0726 0.9761
vn -0.0496 -0.0722 0.9962
vn 0.0035 -0.9975 -0.0699
vn 0.0496 0.0721 -0.9962
vn 0.0235 0.0677 -0.9974
vn -0.1068 0.0716 -0.9917
vn -0.0075 -0.9975 -0.0696
vn -0.0183 -0.9975 -0.0675
vn -0.2607 0.0710 -0.9628
vn -0.1254 0.0683 -0.9898
vn -0.2715 0.0689 -0.9600
vn -0.0286 -0.9975 -0.0638
vn -0.4081 0.0703 -0.9102
vn -0.4115 0.0696 -0.9087
vn 0.0190 0.9976 0.0673
vn 0.0088 0.9976 0.0694
vn 0.1254 -0.0682 0.9898
vn 0.2607 -0.0710 0.9628
vn 0.2715 -0.0689 0.9600
vn -0.0017 0.9976 0.0699
vn -0.0235 -0.0677 0.9974
vn 0.1068 -0.0716 0.9917
vn 0.4081 -0.0703 0.9102
vn -0.5423 0.0696 -0.8373
vn -0.5455 0.0703 -0.8352
vn -0.0318 0.9976 0.0623
vn 0.4540 0.0666 -0.8885
vn -0.0408 0.9976 0.0569
vn -0.6958 -0.0660 0.7152
vn -0.0678 0.9976 -0.0172
vn -0.9199 -0.0672 -0.3863
vn 0.0017 0.9976 -0.0699
vn -0.0235 0.0677 0.9974
vn 0.0121 0.9976 -0.0689
vn -0.1719 0.0673 0.9828
vn -0.0496 0.0721 0.9962
vn 0.7394 -0.0737 -0.6692
vn 0.6958 -0.0660 -0.7152
vn -0.0519 -0.9975 0.0470
vn 0.8520 -0.0677 0.5191
vn 0.0536 0.9976 0.0449
vn 0.7651 -0.0682 0.6403
vn 0.7768 -0.0716 0.6257
vn -0.6611 0.0689 -0.7471
s 0
f 1//1 4//1 2//1
f 1//2 2//2 3//2
f 5//3 1//3 3//3
f 6//1 4//1 1//1
f 5//4 6//4 1//4
f 9//5 7//5 6//5
f 7//6 8//6 6//6
f 6//6 8//6 4//6
f 5//7 9//7 6//7
f 11//8 7//8 9//8
f 10//9 9//9 5//9
f 12//10 9//10 10//10
f 12//10 11//10 9//10
f 10//11 8//11 12//11
f 8//12 13//12 12//12
f 12//13 13//13 14//13
f 14//14 11//14 12//14
f 15//15 16//15 14//15
f 14//16 17//16 15//16
f 14//14 16//14 11//14
f 13//17 17//17 14//17
f 18//18 17//18 19//18
f 18//19 20//19 17//19
f 19//18 17//18 13//18
f 17//20 20//20 15//20
f 20//21 21//21 23//21
f 22//22 21//22 20//22
f 22//19 20//19 18//19
f 15//23 20//23 23//23
f 23//24 26//24 15//24
f 23//25 21//25 24//25
f 24//26 25//26 23//26
f 23//24 25//24 26//24
f 26//27 18//27 16//27
f 26//28 22//28 18//28
f 15//15 26//15 16//15
f 25//29 22//29 26//29
f 28//30 27//30 25//30
f 25//31 27//31 22//31
f 24//26 28//26 25//26
f 28//32 31//32 27//32
f 29//33 28//33 24//33
f 29//33 30//33 28//33
f 30//34 31//34 28//34
f 30//35 32//35 31//35
f 32//36 33//36 31//36
f 31//36 33//36 34//36
f 31//37 34//37 27//37
f 34//38 33//38 29//38
f 27//37 34//37 21//37
f 21//39 34//39 24//39
f 24//40 34//40 29//40
f 32//41 36//41 33//41
f 29//42 33//42 35//42
f 33//43 36//43 35//43
f 36//44 37//44 39//44
f 38//45 37//45 36//45
f 38//41 36//41 32//41
f 35//46 36//46 39//46
f 39//47 37//47 40//47
f 39//48 42//48 35//48
f 40//49 41//49 39//49
f 39//48 41//48 42//48
f 42//50 32//50 30//50
f 42//51 38//51 32//51
f 35//52 42//52 30//52
f 41//53 38//53 42//53
f 44//54 43//54 41//54
f 41//55 43//55 38//55
f 40//49 44//49 41//49
f 45//56 44//56 40//56
f 44//56 45//56 46//56
f 44//57 47//57 43//57
f 46//58 47//58 44//58
f 46//59 48//59 47//59
f 48//60 49//60 47//60
f 47//60 49//60 50//60
f 47//61 50//61 43//61
f 50//62 49//62 45//62
f 43//61 50//61 37//61
f 37//63 50//63 40//63
f 40//64 50//64 45//64
f 48//65 52//65 49//65
f 45//66 49//66 51//66
f 49//67 52//67 51//67
f 52//68 53//68 55//68
f 54//69 53//69 52//69
f 54//65 52//65 48//65
f 51//70 52//70 55//70
f 57//71 51//71 55//71
f 55//72 53//72 56//72
f 58//73 55//73 56//73
f 57//71 55//71 58//71
f 59//74 60//74 58//74
f 58//73 56//73 59//73
f 58//75 60//75 54//75
f 58//76 54//76 57//76
f 59//77 61//77 60//77
f 60//69 53//69 54//69
f 60//78 62//78 53//78
f 61//78 62//78 60//78
f 62//79 63//79 64//79
f 61//80 63//80 62//80
f 53//81 62//81 56//81
f 56//82 62//82 64//82
f 66//83 64//83 65//83
f 64//84 63//84 65//84
f 59//85 64//85 66//85
f 59//85 56//85 64//85
f 68//86 67//86 66//86
f 66//87 67//87 61//87
f 66//88 61//88 59//88
f 66//83 65//83 68//83
f 68//89 69//89 67//89
f 68//90 65//90 70//90
f 71//91 69//91 68//91
f 68//90 70//90 71//90
f 73//92 72//92 71//92
f 71//93 72//93 69//93
f 71//94 74//94 73//94
f 71//94 70//94 74//94
f 70//95 75//95 74//95
f 75//96 77//96 74//96
f 73//97 74//97 76//97
f 74//98 77//98 76//98
f 77//99 78//99 76//99
f 79//100 78//100 77//100
f 79//101 77//101 72//101
f 72//101 77//101 75//101
f 81//102 80//102 79//102
f 80//100 78//100 79//100
f 81//103 79//103 73//103
f 73//104 79//104 72//104
f 82//105 80//105 81//105
f 81//106 83//106 82//106
f 81//106 76//106 83//106
f 73//97 76//97 81//97
f 84//107 82//107 83//107
f 85//108 84//108 83//108
f 76//109 78//109 83//109
f 78//110 86//110 83//110
f 86//111 85//111 83//111
f 87//112 85//112 86//112
f 87//113 86//113 80//113
f 80//113 86//113 78//113
f 82//114 88//114 87//114
f 88//112 85//112 87//112
f 82//115 87//115 80//115
f 89//116 90//116 88//116
f 82//117 89//117 88//117
f 88//118 91//118 85//118
f 90//118 91//118 88//118
f 91//119 92//119 93//119
f 90//120 92//120 91//120
f 85//121 91//121 84//121
f 84//122 91//122 93//122
f 93//123 89//123 84//123
f 94//124 95//124 93//124
f 93//125 92//125 94//125
f 93//123 95//123 89//123
f 97//126 96//126 95//126
f 95//127 96//127 90//127
f 94//124 97//124 95//124
f 95//128 90//128 89//128
f 98//129 99//129 97//129
f 100//130 98//130 97//130
f 97//131 99//131 96//131
f 100//130 97//130 94//130
f 100//132 101//132 102//132
f 103//133 101//133 100//133
f 94//134 103//134 100//134
f 102//135 98//135 100//135
f 99//136 101//136 103//136
f 99//137 103//137 96//137
f 96//137 103//137 92//137
f 92//138 103//138 94//138
f 101//139 104//139 102//139
f 102//140 104//140 105//140
f 105//141 106//141 102//141
f 102//135 106//135 98//135
f 105//141 109//141 106//141
f 106//142 107//142 98//142
f 106//143 108//143 107//143
f 109//144 108//144 106//144
f 111//145 109//145 105//145
f 112//146 110//146 109//146
f 109//147 110//147 108//147
f 111//145 112//145 109//145
f 112//148 115//148 110//148
f 113//149 115//149 112//149
f 114//150 113//150 112//150
f 114//150 112//150 111//150
f 113//151 116//151 115//151
f 116//152 117//152 115//152
f 115//152 117//152 118//152
f 115//153 118//153 110//153
f 118//154 117//154 114//154
f 110//153 118//153 119//153
f 119//155 118//155 111//155
f 111//156 118//156 114//156
f 110//157 119//157 108//157
f 108//157 119//157 104//157
f 104//158 119//158 105//158
f 105//159 119//159 111//159
f 116//160 121//160 117//160
f 114//161 117//161 120//161
f 117//162 121//162 120//162
f 121//163 122//163 124//163
f 123//164 122//164 121//164
f 123//160 121//160 116//160
f 120//165 121//165 124//165
f 125//166 126//166 124//166
f 124//167 122//167 125//167
f 124//168 126//168 127//168
f 124//168 127//168 120//168
f 127//169 116//169 113//169
f 127//170 123//170 116//170
f 126//171 123//171 127//171
f 120//172 127//172 113//172
f 129//173 128//173 126//173
f 126//174 128//174 123//174
f 126//166 125//166 129//166
f 129//175 131//175 128//175
f 130//176 131//176 129//176
f 129//177 132//177 130//177
f 129//177 125//177 132//177
f 132//178 133//178 134//178
f 135//179 133//179 132//179
f 125//180 135//180 132//180
f 130//181 132//181 134//181
f 131//182 133//182 135//182
f 131//183 135//183 128//183
f 128//183 135//183 122//183
f 122//184 135//184 125//184
f 133//185 136//185 134//185
f 134//186 136//186 137//186
f 138//187 134//187 137//187
f 130//181 134//181 138//181
f 138//187 137//187 141//187
f 138//188 139//188 130//188
f 138//189 140//189 139//189
f 141//190 140//190 138//190
f 143//191 142//191 141//191
f 141//192 142//192 140//192
f 141//193 144//193 143//193
f 141//193 137//193 144//193
f 137//194 145//194 144//194
f 145//195 147//195 144//195
f 143//196 144//196 146//196
f 144//197 147//197 146//197
f 147//198 148//198 146//198
f 149//199 148//199 147//199
f 149//200 147//200 142//200
f 142//200 147//200 145//200
f 151//201 150//201 149//201
f 150//199 148//199 149//199
f 143//202 149//202 142//202
f 151//203 149//203 143//203
f 152//204 150//204 151//204
f 143//196 146//196 151//196
f 151//205 146//205 153//205
f 151//205 153//205 152//205
f 146//206 148//206 153//206
f 148//207 154//207 153//207
f 153//208 154//208 155//208
f 152//209 153//209 155//209
f 152//209 155//209 156//209
f 156//210 155//210 158//210
f 155//211 157//211 158//211
f 154//212 157//212 155//212
f 157//213 161//213 158//213
f 160//214 158//214 159//214
f 158//215 161//215 159//215
f 156//210 158//210 160//210
f 161//216 2//216 159//216
f 3//2 2//2 161//2
f 3//217 161//217 162//217
f 162//217 161//217 157//217
f 162//218 157//218 163//218
f 156//219 162//219 163//219
f 160//220 162//220 156//220
f 160//221 3//221 162//221
f 163//218 157//218 154//218
f 163//222 154//222 150//222
f 152//223 163//223 150//223
f 156//224 163//224 152//224
f 5//225 3//225 160//225
f 160//214 159//214 5//214
f 2//226 4//226 159//226
f 10//9 5//9 159//9
f 4//227 10//227 159//227
f 150//222 154//222 148//222
f 142//228 145//228 140//228
f 140//228 145//228 136//228
f 136//229 145//229 137//229
f 140//230 136//230 139//230
f 139//182 133//182 131//182
f 139//230 136//230 133//230
f 130//231 139//231 131//231
f 128//164 122//164 123//164
f 120//172 113//172 114//172
f 108//232 104//232 107//232
f 107//136 101//136 99//136
f 107//232 104//232 101//232
f 98//233 107//233 99//233
f 96//120 92//120 90//120
f 84//107 89//107 82//107
f 72//234 75//234 69//234
f 69//234 75//234 164//234
f 164//235 75//235 70//235
f 69//236 164//236 67//236
f 67//236 164//236 63//236
f 63//237 164//237 65//237
f 65//238 164//238 70//238
f 67//80 63//80 61//80
f 57//239 48//239 46//239
f 57//240 54//240 48//240
f 46//241 51//241 57//241
f 46//241 45//241 51//241
f 43//45 37//45 38//45
f 35//52 30//52 29//52
f 27//22 21//22 22//22
f 16//242 18//242 19//242
f 19//243 13//243 7//243
f 11//244 19//244 7//244
f 16//245 19//245 11//245
f 7//243 13//243 8//243
f 4//246 8//246 10//246
