# Blender 3.3.1
# www.blender.org
mtllib cup_wall4.mtl
g Walls_V2.004
v 12.464480 24.965120 22.816080
v 11.986220 25.034880 21.940630
v 8.313147 24.965120 24.633881
v 16.237089 24.965120 20.305019
v 15.614080 25.034880 19.525921
v 7.776525 0.965122 23.043751
v 11.659890 0.965122 21.343281
v 11.181630 1.034878 20.467840
v 15.188970 0.965122 18.994310
v 19.516340 24.965120 17.177000
v 14.752200 1.034878 18.064711
v 18.256540 0.965122 16.068211
v 20.769400 0.965122 12.653880
v 17.820391 1.034878 15.046420
v 22.202591 24.965120 13.527060
v 24.214239 24.965120 9.466116
v 23.285151 25.034880 9.102904
v 21.350691 25.034880 13.008030
v 18.767500 25.034880 16.517920
v 20.281740 1.034878 11.515740
v 22.052420 1.034878 7.592898
v 22.651190 0.965122 8.855070
v 25.490141 24.965120 5.117547
v 23.844730 0.965122 4.787204
v 25.991541 24.965120 0.613482
v 24.313770 0.965122 0.573882
v 23.072121 1.034878 3.411494
v 24.994261 25.034880 0.589943
v 24.512091 25.034880 4.921188
v 23.306141 1.034878 -0.886085
v 22.746490 1.034878 -5.153489
v 24.044041 0.965122 -3.656878
v 24.716980 25.034880 -3.759226
v 23.688690 25.034880 -7.994174
v 25.703199 24.965120 -3.909222
v 24.633881 24.965120 -8.313147
v 23.043751 0.965122 -7.776525
v 22.816080 24.965120 -12.464480
v 21.940630 25.034880 -11.986220
v 19.525921 25.034880 -15.614080
v 21.412230 1.034878 -9.245398
v 19.348810 1.034878 -13.022460
v 16.626490 1.034878 -16.356070
v 18.994310 0.965122 -15.188970
v 21.343281 0.965122 -11.659890
v 20.305019 24.965120 -16.237089
v 17.177000 24.965120 -19.516340
v 16.517920 25.034880 -18.767500
v 13.008030 25.034880 -21.350691
v 13.337970 1.034878 -19.132681
v 9.595248 1.034878 -21.257759
v 12.653880 0.965122 -20.769400
v 16.068211 0.965122 -18.256540
v 13.527060 24.965120 -22.202591
v 9.466116 24.965120 -24.214239
v 9.102904 25.034880 -23.285151
v 4.921188 25.034880 -24.512091
v 5.525768 1.034878 -22.658930
v 1.268114 1.034878 -23.288481
v 4.787204 0.965122 -23.844730
v 8.855070 0.965122 -22.651190
v 5.117547 24.965120 -25.490141
v 0.613482 24.965120 -25.991541
v 0.589943 25.034880 -24.994261
v -3.759226 25.034880 -24.716980
v -3.032724 1.034878 -23.124960
v -3.656878 0.965122 -24.044041
v 0.573882 0.965122 -24.313770
v -7.230286 1.034878 -22.173950
v -11.181630 1.034878 -20.467840
v -7.994174 25.034880 -23.688690
v -7.776525 0.965122 -23.043751
v -12.464480 24.965120 -22.816080
v -11.659890 0.965122 -21.343281
v -8.313147 24.965120 -24.633881
v -11.986220 25.034880 -21.940630
v -3.909222 24.965120 -25.703199
v -15.614080 25.034880 -19.525921
v -18.767500 25.034880 -16.517920
v -16.237089 24.965120 -20.305019
v -14.752200 1.034878 -18.064711
v -17.820391 1.034878 -15.046420
v -15.188970 0.965122 -18.994310
v -18.256540 0.965122 -16.068211
v -19.516340 24.965120 -17.177000
v -22.202591 24.965120 -13.527060
v -20.769400 0.965122 -12.653880
v -24.214239 24.965120 -9.466116
v -20.281740 1.034878 -11.515740
v -22.651190 0.965122 -8.855070
v -23.844730 0.965122 -4.787204
v -22.052420 1.034878 -7.592898
v -25.490141 24.965120 -5.117547
v -25.991541 24.965120 -0.613482
v -24.994261 25.034880 -0.589943
v -24.512091 25.034880 -4.921188
v -23.285151 25.034880 -9.102904
v -23.072121 1.034878 -3.411494
v -23.306141 1.034878 0.886085
v -24.313770 0.965122 -0.573882
v -25.703199 24.965120 3.909222
v -24.044041 0.965122 3.656878
v -24.633881 24.965120 8.313147
v -22.746490 1.034878 5.153489
v -23.043751 0.965122 7.776525
v -21.343281 0.965122 11.659890
v -22.816080 24.965120 12.464480
v -21.412230 1.034878 9.245398
v -23.688690 25.034880 7.994174
v -19.348810 1.034878 13.022460
v -21.940630 25.034880 11.986220
v -19.525921 25.034880 15.614080
v -20.305019 24.965120 16.237089
v -16.626490 1.034878 16.356070
v -16.517920 25.034880 18.767500
v -13.008030 25.034880 21.350691
v -17.177000 24.965120 19.516340
v -13.337970 1.034878 19.132681
v -9.595248 1.034878 21.257759
v -12.653880 0.965122 20.769400
v -16.068211 0.965122 18.256540
v -13.527060 24.965120 22.202591
v -18.994310 0.965122 15.188970
v -9.466116 24.965120 24.214239
v -9.102904 25.034880 23.285151
v -4.921188 25.034880 24.512091
v -5.525768 1.034878 22.658930
v -8.855070 0.965122 22.651190
v -4.787204 0.965122 23.844730
v -1.268114 1.034878 23.288481
v 3.032724 1.034878 23.124960
v -0.573882 0.965122 24.313770
v -0.589943 25.034880 24.994261
v 3.759226 25.034880 24.716980
v -0.613482 24.965120 25.991541
v -5.117547 24.965120 25.490141
v 3.909222 24.965120 25.703199
v 3.656878 0.965122 24.044041
v 7.994174 25.034880 23.688690
v 7.230286 1.034878 22.173950
v -24.716980 25.034880 3.759226
v -21.350691 25.034880 -13.008030
vn 0.0388 0.9975 0.0583
vn 0.0281 0.9975 0.0641
vn 0.4001 -0.0695 0.9138
vn 0.5527 -0.0695 0.8304
vn -0.0281 -0.9975 -0.0641
vn -0.0388 -0.9975 -0.0583
vn 0.6886 -0.0695 0.7218
vn -0.0493 -0.9974 -0.0517
vn -0.0383 -0.9976 -0.0569
vn 0.8034 -0.0695 0.5913
vn -0.0586 -0.9974 -0.0431
vn -0.0472 -0.9977 -0.0480
vn 0.8939 -0.0695 0.4428
vn 0.0627 0.9975 0.0311
vn 0.0564 0.9975 0.0415
vn -0.8940 0.0674 -0.4429
vn -0.8035 0.0680 -0.5914
vn -0.8182 0.0719 -0.5704
vn -0.0543 -0.9978 -0.0379
vn -0.0596 -0.9979 -0.0269
vn -0.9091 0.0725 -0.4103
vn -0.0662 -0.9973 -0.0328
vn 0.9572 -0.0695 0.2809
vn -0.0718 -0.9972 -0.0211
vn 0.9915 -0.0695 0.1104
vn -0.0751 -0.9971 -0.0084
vn -0.0628 -0.9979 -0.0153
vn -0.9958 0.0734 -0.0542
vn -0.9917 0.0664 -0.1104
vn -0.9689 0.0730 -0.2363
vn -0.0640 -0.9979 -0.0035
vn -0.0761 -0.9971 0.0048
vn -0.0632 -0.9980 0.0083
vn -0.9888 0.0737 0.1297
vn -0.9958 0.0661 0.0635
vn -0.9696 0.0659 0.2354
vn 0.0680 0.9975 -0.0165
vn 0.0699 0.9975 -0.0045
vn 0.9694 -0.0695 -0.2354
vn 0.9956 -0.0695 -0.0635
vn 0.0641 0.9975 -0.0281
vn 0.9138 -0.0695 -0.4001
vn -0.8307 0.0658 0.5529
vn 0.0583 0.9975 -0.0388
vn -0.9140 0.0658 0.4002
vn -0.8752 0.0739 0.4781
vn -0.7724 0.0738 0.6308
vn -0.0557 -0.9980 0.0304
vn -0.0492 -0.9980 0.0402
vn -0.0640 -0.9970 0.0426
vn 0.8304 -0.0695 -0.5527
vn -0.0704 -0.9970 0.0308
vn 0.0507 0.9975 -0.0483
vn 0.7218 -0.0695 -0.6886
vn -0.5914 0.0661 0.8036
vn 0.0415 0.9975 -0.0564
vn -0.7220 0.0659 0.6887
vn -0.6434 0.0737 0.7620
vn -0.0411 -0.9980 0.0487
vn -0.0317 -0.9979 0.0558
vn -0.4924 0.0734 0.8673
vn -0.0452 -0.9971 0.0614
vn -0.0554 -0.9971 0.0529
vn 0.5913 -0.0695 -0.8034
vn 0.0311 0.9975 -0.0627
vn 0.4428 -0.0695 -0.8939
vn -0.2809 0.0668 0.9574
vn 0.0197 0.9975 -0.0672
vn -0.4429 0.0664 0.8941
vn -0.3247 0.0730 0.9430
vn -0.1459 0.0725 0.9866
vn -0.0211 -0.9979 0.0611
vn -0.0096 -0.9979 0.0647
vn -0.0211 -0.9972 0.0718
vn 0.2809 -0.0695 -0.9572
vn -0.0336 -0.9971 0.0677
vn 0.0077 0.9975 -0.0696
vn 0.1104 -0.0695 -0.9915
vn 0.0635 0.0680 0.9957
vn -0.0045 0.9975 -0.0699
vn -0.1104 0.0674 0.9916
vn 0.0379 0.0719 0.9967
vn 0.0025 -0.9978 0.0662
vn 0.2204 0.0712 0.9728
vn 0.0149 -0.9977 0.0656
vn 0.0046 -0.9974 0.0726
vn 0.2354 0.0687 0.9695
vn 0.0272 -0.9976 0.0629
vn 0.3954 0.0704 0.9158
vn 0.0169 -0.9974 0.0694
vn -0.4001 -0.0695 -0.9138
vn 0.0281 -0.9975 0.0641
vn -0.2354 -0.0695 -0.9694
vn -0.0281 0.9975 -0.0641
vn -0.0165 0.9975 -0.0680
vn -0.0635 -0.0695 -0.9956
vn -0.0388 0.9975 -0.0583
vn 0.4001 0.0695 0.9138
vn 0.5527 0.0695 0.8304
vn 0.6886 0.0687 0.7219
vn -0.0483 0.9975 -0.0507
vn 0.5570 0.0704 0.8275
vn 0.0383 -0.9976 0.0569
vn 0.0472 -0.9977 0.0480
vn 0.6995 0.0712 0.7111
vn 0.0493 -0.9974 0.0517
vn -0.8034 -0.0695 -0.5913
vn -0.6886 -0.0695 -0.7218
vn 0.0586 -0.9974 0.0431
vn 0.0543 -0.9978 0.0379
vn -0.8939 -0.0695 -0.4428
vn 0.0662 -0.9973 0.0328
vn -0.9572 -0.0695 -0.2809
vn 0.0596 -0.9979 0.0269
vn 0.0718 -0.9972 0.0211
vn -0.9915 -0.0695 -0.1104
vn -0.0696 0.9975 -0.0077
vn -0.0672 0.9975 -0.0197
vn 0.9917 0.0664 0.1104
vn 0.9574 0.0668 0.2809
vn 0.9689 0.0730 0.2363
vn 0.9958 0.0734 0.0542
vn 0.0628 -0.9979 0.0153
vn 0.0751 -0.9971 0.0084
vn 0.0640 -0.9979 0.0035
vn -0.9956 -0.0695 0.0635
vn 0.0761 -0.9971 -0.0048
vn -0.9694 -0.0695 0.2354
vn 0.0632 -0.9980 -0.0083
vn 0.0745 -0.9971 -0.0181
vn -0.9138 -0.0695 0.4001
vn 0.0704 -0.9970 -0.0308
vn 0.0604 -0.9980 -0.0197
vn 0.9481 0.0738 -0.3092
vn 0.9140 0.0658 -0.4002
vn 0.0557 -0.9980 -0.0304
vn 0.8752 0.0739 -0.4781
vn 0.8307 0.0658 -0.5529
vn -0.0583 0.9975 0.0388
vn -0.0641 0.9975 0.0281
vn -0.0507 0.9975 0.0483
vn 0.7724 0.0738 -0.6308
vn 0.7220 0.0659 -0.6887
vn 0.5914 0.0661 -0.8036
vn -0.0415 0.9975 0.0564
vn 0.6434 0.0737 -0.7620
vn 0.0411 -0.9980 -0.0487
vn 0.0317 -0.9979 -0.0558
vn 0.4924 0.0734 -0.8673
vn 0.0452 -0.9971 -0.0614
vn 0.0554 -0.9971 -0.0529
vn -0.5913 -0.0695 0.8034
vn -0.7218 -0.0695 0.6886
vn 0.0492 -0.9980 -0.0402
vn -0.8304 -0.0695 0.5527
vn 0.0640 -0.9970 -0.0426
vn -0.0311 0.9975 0.0627
vn -0.4428 -0.0695 0.8939
vn 0.2809 0.0668 -0.9574
vn -0.0197 0.9975 0.0672
vn 0.4429 0.0664 -0.8941
vn 0.3247 0.0730 -0.9430
vn 0.1459 0.0725 -0.9866
vn 0.0211 -0.9979 -0.0611
vn 0.0211 -0.9972 -0.0718
vn 0.0096 -0.9979 -0.0647
vn -0.0025 -0.9978 -0.0662
vn -0.0379 0.0719 -0.9967
vn 0.0082 -0.9973 -0.0734
vn 0.1104 0.0674 -0.9916
vn -0.0635 0.0680 -0.9957
vn 0.0045 0.9975 0.0699
vn -0.0077 0.9975 0.0696
vn -0.2809 -0.0695 0.9572
vn -0.1104 -0.0695 0.9915
vn 0.0635 -0.0695 0.9956
vn 0.0165 0.9975 0.0680
vn 0.2354 -0.0695 0.9694
vn -0.4001 0.0695 -0.9138
vn -0.2354 0.0687 -0.9695
vn -0.3954 0.0704 -0.9158
vn -0.2204 0.0712 -0.9728
vn -0.0272 -0.9976 -0.0629
vn -0.0149 -0.9977 -0.0656
vn -0.0169 -0.9974 -0.0694
vn -0.0046 -0.9974 -0.0726
vn 0.0336 -0.9971 -0.0677
vn -0.0680 0.9975 0.0165
vn 0.9696 0.0659 -0.2354
vn -0.0699 0.9975 0.0045
vn 0.9958 0.0661 -0.0635
vn 0.9888 0.0737 -0.1297
vn -0.0627 0.9975 -0.0311
vn 0.8940 0.0674 0.4429
vn 0.9091 0.0725 0.4103
vn -0.0564 0.9975 -0.0415
vn 0.8035 0.0680 0.5914
vn 0.8182 0.0719 0.5704
vn -0.5527 -0.0695 -0.8304
vn 0.0388 -0.9975 0.0583
vn -0.0082 -0.9973 0.0734
vn -0.9481 0.0738 0.3092
vn -0.0604 -0.9980 0.0197
vn -0.0745 -0.9971 0.0181
vn 0.0696 0.9975 0.0077
vn 0.0672 0.9975 0.0197
vn -0.9574 0.0668 -0.2809
vn 0.0483 0.9975 0.0507
vn -0.6886 0.0687 -0.7219
vn -0.6995 0.0712 -0.7111
vn -0.5570 0.0704 -0.8275
vn -0.5527 0.0695 -0.8304
s 0
f 1//1 5//1 2//1
f 1//2 2//2 3//2
f 3//3 6//3 1//3
f 1//4 7//4 4//4
f 4//1 5//1 1//1
f 1//3 6//3 7//3
f 7//5 6//5 8//5
f 4//4 7//4 9//4
f 9//6 7//6 8//6
f 10//7 9//7 12//7
f 4//7 9//7 10//7
f 12//8 9//8 11//8
f 11//9 9//9 8//9
f 15//10 12//10 13//10
f 13//11 12//11 14//11
f 10//10 12//10 15//10
f 14//12 12//12 11//12
f 15//13 13//13 16//13
f 16//14 17//14 15//14
f 15//14 17//14 18//14
f 15//15 18//15 10//15
f 18//16 17//16 20//16
f 10//15 18//15 19//15
f 19//17 18//17 14//17
f 14//18 18//18 20//18
f 20//19 13//19 14//19
f 21//20 22//20 20//20
f 20//21 17//21 21//21
f 22//22 13//22 20//22
f 16//23 22//23 23//23
f 16//13 13//13 22//13
f 24//24 22//24 21//24
f 23//23 22//23 24//23
f 25//25 24//25 26//25
f 23//25 24//25 25//25
f 26//26 24//26 27//26
f 27//27 24//27 21//27
f 27//28 28//28 30//28
f 29//29 28//29 27//29
f 21//30 29//30 27//30
f 30//31 26//31 27//31
f 32//32 26//32 30//32
f 31//33 32//33 30//33
f 30//34 33//34 31//34
f 28//35 33//35 30//35
f 33//36 34//36 31//36
f 35//37 34//37 33//37
f 35//38 33//38 25//38
f 25//38 33//38 28//38
f 35//39 32//39 36//39
f 36//37 34//37 35//37
f 35//40 26//40 32//40
f 25//40 26//40 35//40
f 36//39 32//39 37//39
f 36//41 39//41 34//41
f 36//42 37//42 38//42
f 38//41 39//41 36//41
f 39//43 40//43 42//43
f 38//44 40//44 39//44
f 34//45 39//45 41//45
f 41//46 39//46 42//46
f 42//47 40//47 43//47
f 42//48 45//48 41//48
f 43//49 44//49 42//49
f 44//50 45//50 42//50
f 46//51 45//51 44//51
f 38//51 45//51 46//51
f 38//42 37//42 45//42
f 45//52 37//52 41//52
f 46//44 40//44 38//44
f 46//53 48//53 40//53
f 46//54 44//54 47//54
f 47//53 48//53 46//53
f 48//55 49//55 50//55
f 47//56 49//56 48//56
f 40//57 48//57 43//57
f 43//58 48//58 50//58
f 50//59 53//59 43//59
f 51//60 52//60 50//60
f 50//61 49//61 51//61
f 52//62 53//62 50//62
f 53//63 44//63 43//63
f 47//54 44//54 53//54
f 54//64 53//64 52//64
f 47//64 53//64 54//64
f 54//56 49//56 47//56
f 54//65 56//65 49//65
f 54//66 52//66 55//66
f 55//65 56//65 54//65
f 56//67 57//67 58//67
f 55//68 57//68 56//68
f 49//69 56//69 51//69
f 51//70 56//70 58//70
f 58//71 57//71 59//71
f 58//72 61//72 51//72
f 59//73 60//73 58//73
f 60//74 61//74 58//74
f 62//75 61//75 60//75
f 55//75 61//75 62//75
f 61//76 52//76 51//76
f 55//66 52//66 61//66
f 62//68 57//68 55//68
f 62//77 64//77 57//77
f 62//78 60//78 63//78
f 63//77 64//77 62//77
f 64//79 65//79 66//79
f 63//80 65//80 64//80
f 57//81 64//81 59//81
f 59//82 64//82 66//82
f 66//83 68//83 59//83
f 66//84 65//84 69//84
f 69//85 67//85 66//85
f 67//86 68//86 66//86
f 65//87 71//87 69//87
f 72//88 69//88 70//88
f 69//89 71//89 70//89
f 72//90 67//90 69//90
f 73//91 72//91 74//91
f 75//91 72//91 73//91
f 74//92 72//92 70//92
f 75//93 67//93 72//93
f 73//94 76//94 75//94
f 75//94 76//94 71//94
f 75//95 71//95 77//95
f 77//93 67//93 75//93
f 77//96 68//96 67//96
f 63//96 68//96 77//96
f 77//80 65//80 63//80
f 77//95 71//95 65//95
f 73//97 78//97 76//97
f 71//98 76//98 70//98
f 76//99 78//99 70//99
f 78//100 79//100 81//100
f 80//101 79//101 78//101
f 80//97 78//97 73//97
f 78//102 81//102 70//102
f 81//103 83//103 70//103
f 82//104 84//104 81//104
f 81//105 79//105 82//105
f 84//106 83//106 81//106
f 85//107 84//107 86//107
f 85//108 83//108 84//108
f 87//109 84//109 82//109
f 86//107 84//107 87//107
f 89//110 87//110 82//110
f 88//111 87//111 90//111
f 86//111 87//111 88//111
f 90//112 87//112 89//112
f 88//113 90//113 93//113
f 92//114 90//114 89//114
f 93//113 90//113 91//113
f 91//115 90//115 92//115
f 93//116 91//116 94//116
f 94//117 95//117 93//117
f 93//117 95//117 96//117
f 93//118 96//118 88//118
f 96//119 95//119 98//119
f 88//118 96//118 97//118
f 97//120 96//120 92//120
f 92//121 96//121 98//121
f 98//122 95//122 99//122
f 98//123 91//123 92//123
f 100//124 91//124 98//124
f 99//125 100//125 98//125
f 94//126 100//126 101//126
f 94//116 91//116 100//116
f 102//127 100//127 99//127
f 101//126 100//126 102//126
f 103//128 102//128 105//128
f 101//128 102//128 103//128
f 104//129 102//129 99//129
f 105//130 102//130 104//130
f 103//131 105//131 107//131
f 107//131 105//131 106//131
f 106//132 105//132 108//132
f 108//133 105//133 104//133
f 104//134 109//134 108//134
f 109//135 111//135 108//135
f 110//136 106//136 108//136
f 108//137 111//137 110//137
f 111//138 112//138 110//138
f 107//139 112//139 111//139
f 107//140 111//140 103//140
f 103//140 111//140 109//140
f 113//139 112//139 107//139
f 113//141 115//141 112//141
f 110//142 112//142 114//142
f 112//143 115//143 114//143
f 115//144 116//144 118//144
f 117//145 116//145 115//145
f 117//141 115//141 113//141
f 114//146 115//146 118//146
f 118//147 121//147 114//147
f 119//148 120//148 118//148
f 118//149 116//149 119//149
f 120//150 121//150 118//150
f 121//151 123//151 114//151
f 122//152 121//152 120//152
f 117//152 121//152 122//152
f 117//153 123//153 121//153
f 114//154 123//154 110//154
f 113//155 106//155 123//155
f 123//156 106//156 110//156
f 113//153 123//153 117//153
f 122//145 116//145 117//145
f 122//157 125//157 116//157
f 122//158 120//158 124//158
f 124//157 125//157 122//157
f 125//159 126//159 127//159
f 124//160 126//160 125//160
f 116//161 125//161 119//161
f 119//162 125//162 127//162
f 127//163 126//163 130//163
f 127//164 128//164 119//164
f 129//165 128//165 127//165
f 130//166 129//166 127//166
f 131//167 132//167 130//167
f 130//168 133//168 131//168
f 132//169 129//169 130//169
f 126//170 133//170 130//170
f 133//171 134//171 131//171
f 135//172 134//172 133//172
f 135//173 133//173 136//173
f 136//173 133//173 126//173
f 136//174 128//174 129//174
f 124//174 128//174 136//174
f 136//175 129//175 135//175
f 136//160 126//160 124//160
f 135//176 132//176 137//176
f 137//172 134//172 135//172
f 135//175 129//175 132//175
f 137//177 139//177 134//177
f 137//176 132//176 138//176
f 137//178 138//178 3//178
f 3//177 139//177 137//177
f 139//179 2//179 8//179
f 3//2 2//2 139//2
f 134//180 139//180 140//180
f 140//181 139//181 8//181
f 131//182 134//182 140//182
f 6//183 140//183 8//183
f 140//184 138//184 131//184
f 6//185 138//185 140//185
f 138//186 132//186 131//186
f 3//178 138//178 6//178
f 124//158 120//158 128//158
f 128//187 120//187 119//187
f 107//155 106//155 113//155
f 103//188 109//188 101//188
f 101//188 109//188 141//188
f 141//189 109//189 104//189
f 101//190 141//190 94//190
f 94//190 141//190 95//190
f 95//191 141//191 99//191
f 99//192 141//192 104//192
f 88//193 97//193 86//193
f 86//193 97//193 142//193
f 142//194 97//194 89//194
f 89//195 97//195 92//195
f 86//196 142//196 85//196
f 79//197 142//197 82//197
f 85//196 142//196 79//196
f 82//198 142//198 89//198
f 80//108 83//108 85//108
f 85//101 79//101 80//101
f 80//199 74//199 83//199
f 83//200 74//200 70//200
f 73//199 74//199 80//199
f 68//201 60//201 59//201
f 63//78 60//78 68//78
f 31//202 34//202 41//202
f 41//203 37//203 31//203
f 37//204 32//204 31//204
f 23//205 28//205 29//205
f 23//206 29//206 16//206
f 16//206 29//206 17//206
f 17//207 29//207 21//207
f 25//205 28//205 23//205
f 10//208 19//208 4//208
f 4//208 19//208 5//208
f 5//209 19//209 11//209
f 11//210 19//210 14//210
f 5//211 11//211 8//211
f 2//212 5//212 8//212
